o door
v 2.232473373413086 -6.183619976043701 15.067700386047363
v -2.251159906387329 -6.183619976043701 15.067700386047363
v 2.055952310562134 -5.2116522789001465 19.33879280090332
v -2.039334774017334 -5.2116522789001465 19.33879280090332
v -1.898118019104004 -4.779666900634766 21.016721725463867
v 1.9147355556488037 -4.779666900634766 21.016721725463867
v -1.6862927675247192 -4.3836798667907715 22.46584129333496
v 1.7029104232788086 -4.3836798667907715 22.46584129333496
v -1.5097718238830566 -4.09568977355957 23.762422561645508
v 1.5263893604278564 -4.09568977355957 23.762422561645508
v -0.9802088141441345 -3.933695077896118 24.37257957458496
v 0.9968264102935791 -3.933695077896118 24.37257957458496
v -0.5918626189231873 -3.8976962566375732 24.677656173706055
v 0.5731760263442993 -3.8976962566375732 24.677656173706055
v 0.00830879993736744 -3.8976962566375732 24.75392723083496
vt 0.2727380096912384 0.013498960062861443
vt 0.7116469740867615 0.010638999752700329
vt 0.29406455159187317 0.4433271288871765
vt 0.6959468126296997 0.4405863285064697
vt 0.6829794049263 0.6072981357574463
vt 0.30928248167037964 0.6098006367683411
vt 0.6636354923248291 0.7539902925491333
vt 0.3306090533733368 0.7563735842704773
vt 0.6464884877204895 0.8831651210784912
vt 0.34968504309654236 0.8853101134300232
vt 0.5960656404495239 0.9518041610717773
vt 0.4011259973049164 0.9533532857894897
vt 0.5555023550987244 0.9773054718971252
vt 0.44211795926094055 0.9782587885856628
vt 0.49886375665664673 0.9867194890975952
vn -1.0112094809503619e-13 0.97575443983078 -0.21886809170246124
vn -1.0112094809503619e-13 0.97575443983078 -0.21886809170246124
vn -1.003857709306645e-13 0.9707403779029846 -0.2401314377784729
vn -1.003857709306645e-13 0.9707403779029846 -0.2401314377784729
vn -9.99364504453322e-14 0.9663954377174377 -0.25706008076667786
vn -0.0018882075091823936 0.9652611613273621 -0.2612801790237427
vn 0.0037753775250166655 0.9685975313186646 -0.24860523641109467
vn 0.001886857906356454 0.9717785120010376 -0.23588760197162628
vn -0.0018880317220464349 0.9747869968414307 -0.22312943637371063
vn -1.0112094809503619e-13 0.97575443983078 -0.21886809170246124
vn -1.0124504858620431e-13 0.9811564087867737 -0.19321508705615997
vn -1.0187518011258931e-13 0.9851431250572205 -0.17173540592193604
vn -0.0018876121612265706 0.9937974810600281 -0.1111890971660614
vn 0.0018872113432735205 0.9959892630577087 -0.08945280313491821
vn -1.0335603087361506e-13 0.9994630813598633 -0.03276457265019417
v -2.251159906387329 -6.579607963562012 15.067700386047363
v -1.368554949760437 -6.723602771759033 15.067700386047363
v -2.145247459411621 -6.0576252937316895 17.203245162963867
v -1.1214256286621094 -6.183620929718018 17.203245162963867
v -2.074639081954956 -5.5536417961120605 19.33879280090332
v -0.8742961883544922 -5.643639087677002 19.33879280090332
v -0.8036878108978271 -5.157655239105225 21.016721725463867
v -1.898118019104004 -5.085657596588135 21.016721725463867
v -1.7215969562530518 -4.635672569274902 22.46584129333496
v -0.6977751851081848 -4.7256693840026855 22.46584129333496
v -0.9096003770828247 -4.311683177947998 23.762422561645508
v -1.5097718238830566 -4.239686012268066 23.762422561645508
v -1.0155129432678223 -4.11368989944458 24.37257957458496
v -0.5918626189231873 -4.059691905975342 24.677656173706055
v -0.30942898988723755 -4.347681999206543 23.762422561645508
v 0.00830879993736744 -4.059691905975342 24.75392723083496
v 0.32604658603668213 -4.347681999206543 23.762422561645508
v 0.5731760263442993 -4.059691905975342 24.677656173706055
v 0.8909137845039368 -4.311683177947998 23.762422561645508
v 0.9968264102935791 -4.11368989944458 24.37257957458496
v 1.491085171699524 -4.239686012268066 23.762422561645508
v 1.7029104232788086 -4.635672569274902 22.46584129333496
v 0.7143927812576294 -4.7256693840026855 22.46584129333496
v -0.5212541818618774 -6.77760124206543 15.067700386047363
v 0.5025675892829895 -6.77760124206543 15.067700386047363
v 0.7850012183189392 -5.157655239105225 21.016721725463867
v 1.9147355556488037 -5.085657596588135 21.016721725463867
v 2.055952310562134 -5.5536417961120605 19.33879280090332
v 0.8556095957756042 -5.643639087677002 19.33879280090332
v 1.1027389764785767 -6.183620929718018 17.203245162963867
v 1.3498684167861938 -6.723602771759033 15.067700386047363
v 2.161864995956421 -6.0576252937316895 17.203245162963867
v 2.267777681350708 -6.579607963562012 15.067700386047363
v -0.5212541818618774 -6.77760124206543 15.067700386047363
v -1.368554949760437 -6.723602771759033 15.067700386047363
v 0.5025675892829895 -6.77760124206543 15.067700386047363
v -2.251159906387329 -6.183620929718018 15.067700386047363
v 2.232473373413086 -6.183620929718018 15.067700386047363
v 1.3498684167861938 -6.723602771759033 15.067700386047363
v 2.267777681350708 -6.579607963562012 15.067700386047363
v -2.251159906387329 -6.579607963562012 15.067700386047363
v -2.251159906387329 -6.183620929718018 15.067700386047363
v -2.039334774017334 -5.211653232574463 19.33879280090332
v -2.251159906387329 -6.579607963562012 15.067700386047363
v -2.145247459411621 -6.0576252937316895 17.203245162963867
v -2.074639081954956 -5.5536417961120605 19.33879280090332
v -1.898118019104004 -4.779667854309082 21.016721725463867
v -1.898118019104004 -5.085657596588135 21.016721725463867
v -1.6862927675247192 -4.383680820465088 22.46584129333496
v -1.7215969562530518 -4.635672569274902 22.46584129333496
v -1.5097718238830566 -4.095690727233887 23.762422561645508
v -1.5097718238830566 -4.239686012268066 23.762422561645508
v -1.5097718238830566 -4.095690727233887 23.762422561645508
v -1.5097718238830566 -4.239686012268066 23.762422561645508
v -0.9802088141441345 -3.9336960315704346 24.37257957458496
v -1.0155129432678223 -4.11368989944458 24.37257957458496
v -0.5918626189231873 -3.8976972103118896 24.677656173706055
v -0.5918626189231873 -4.059691905975342 24.677656173706055
v 0.00830879993736744 -3.8976972103118896 24.75392723083496
v 0.00830879993736744 -4.059691905975342 24.75392723083496
v 0.5731760263442993 -4.059691905975342 24.677656173706055
v 0.5731760263442993 -3.8976972103118896 24.677656173706055
v 0.9968264102935791 -4.11368989944458 24.37257957458496
v 0.9968264102935791 -3.9336960315704346 24.37257957458496
v 1.491085171699524 -4.239686012268066 23.762422561645508
v 1.5263893604278564 -4.095690727233887 23.762422561645508
v 2.232473373413086 -6.183620929718018 15.067700386047363
v 2.267777681350708 -6.579607963562012 15.067700386047363
v 2.055952310562134 -5.211653232574463 19.33879280090332
v 2.161864995956421 -6.0576252937316895 17.203245162963867
v 2.055952310562134 -5.5536417961120605 19.33879280090332
v 1.9147355556488037 -4.779667854309082 21.016721725463867
v 1.9147355556488037 -5.085657596588135 21.016721725463867
v 1.7029104232788086 -4.383680820465088 22.46584129333496
v 1.7029104232788086 -4.635672569274902 22.46584129333496
v 1.5263893604278564 -4.095690727233887 23.762422561645508
v 1.491085171699524 -4.239686012268066 23.762422561645508
v -0.4859499931335449 -6.795600414276123 15.067700386047363
v -0.4859499931335449 -6.759601593017578 15.067700386047363
v -0.4859499931335449 -6.651605606079102 15.525317192077637
v -0.4859499931335449 -6.759601593017578 15.067700386047363
v -0.4859499931335449 -6.795600414276123 15.067700386047363
v -0.4859499931335449 -6.759601593017578 15.067700386047363
v 0.467263400554657 -6.795600414276123 15.067700386047363
v 0.467263400554657 -6.759601593017578 15.067700386047363
v 0.5025675892829895 -6.759601593017578 15.067700386047363
v 0.5025675892829895 -6.795600414276123 15.067700386047363
v 0.467263400554657 -6.813600063323975 15.143969535827637
v 0.467263400554657 -6.615606784820557 15.6778564453125
v -0.4859499931335449 -6.813600063323975 15.143969535827637
v -0.4859499931335449 -6.615606784820557 15.6778564453125
v -0.4859499931335449 -6.813600063323975 15.143969535827637
v 0.467263400554657 -6.813600063323975 15.143969535827637
v 0.467263400554657 -6.615606784820557 15.6778564453125
v 0.5025675892829895 -6.795600414276123 15.067700386047363
v 0.5025675892829895 -6.651605606079102 15.525317192077637
v -0.4859499931335449 -6.615606784820557 15.6778564453125
v -0.4859499931335449 -6.795600414276123 15.067700386047363
v -0.4859499931335449 -6.651605606079102 15.525317192077637
v 0.5025675892829895 -6.795600414276123 15.067700386047363
v 0.5025675892829895 -6.759601593017578 15.067700386047363
v 0.5025675892829895 -6.651605606079102 15.525317192077637
v -1.0155129432678223 -6.147622108459473 17.43205451965332
v -1.0155129432678223 -6.147622108459473 17.43205451965332
v -0.9802088141441345 -6.165621757507324 17.43205451965332
v -1.0155129432678223 -6.165621757507324 17.43205451965332
v -1.0155129432678223 -6.165621757507324 17.508323669433594
v -0.9802088141441345 -6.147622108459473 17.508323669433594
v -1.0155129432678223 -6.111623287200928 17.584592819213867
v -1.0155129432678223 -6.111623287200928 17.584592819213867
v -1.0155129432678223 -6.093624114990234 17.584592819213867
v -0.9802088141441345 -6.111623287200928 17.508323669433594
v -0.9802088141441345 -6.129622936248779 17.43205451965332
v -0.9802088141441345 -6.165621757507324 17.43205451965332
v -1.0155129432678223 -6.147622108459473 17.43205451965332
v -1.0155129432678223 -6.129622936248779 17.43205451965332
v -1.0155129432678223 -6.093624114990234 17.584592819213867
v -1.0155129432678223 -6.111623287200928 17.584592819213867
v -1.0508172512054443 -6.111623287200928 17.508323669433594
v -1.0508172512054443 -6.147622108459473 17.508323669433594
v -1.0508172512054443 -6.165621757507324 17.43205451965332
v -1.0508172512054443 -6.129622936248779 17.43205451965332
v -1.0155129432678223 -6.129622936248779 17.43205451965332
v -1.0155129432678223 -6.147622108459473 17.43205451965332
v -1.0155129432678223 -6.111623287200928 17.584592819213867
v -1.0155129432678223 -6.165621757507324 17.508323669433594
v -1.0508172512054443 -6.147622108459473 17.508323669433594
v -1.0155129432678223 -6.165621757507324 17.43205451965332
v -1.0508172512054443 -6.165621757507324 17.43205451965332
v -1.0155129432678223 -6.147622108459473 17.43205451965332
v -1.0155129432678223 -6.147622108459473 17.43205451965332
v -1.0155129432678223 -6.093624114990234 17.584592819213867
v -1.0155129432678223 -6.093624114990234 17.584592819213867
v -1.0155129432678223 -6.111623287200928 17.584592819213867
v -1.0155129432678223 -6.111623287200928 17.584592819213867
v -1.0155129432678223 -6.111623287200928 17.584592819213867
v -1.0155129432678223 -6.129622936248779 17.43205451965332
v -1.0155129432678223 -6.129622936248779 17.43205451965332
v -1.0155129432678223 -6.147622108459473 17.43205451965332
v -1.0155129432678223 -6.147622108459473 17.43205451965332
v -1.0155129432678223 -6.147622108459473 17.43205451965332
v 0.9968264102935791 -6.093624114990234 17.584592819213867
v 0.9968264102935791 -6.111623287200928 17.584592819213867
v 0.9615222215652466 -6.111623287200928 17.508323669433594
v 0.9968264102935791 -6.147622108459473 17.508323669433594
v 0.9615222215652466 -6.129622936248779 17.43205451965332
v 0.9968264102935791 -6.165621757507324 17.43205451965332
v 0.9968264102935791 -6.129622936248779 17.43205451965332
v 0.9968264102935791 -6.147622108459473 17.43205451965332
v 0.9968264102935791 -6.147622108459473 17.43205451965332
v 0.9968264102935791 -6.165621757507324 17.43205451965332
v 0.9968264102935791 -6.165621757507324 17.508323669433594
v 0.9968264102935791 -6.147622108459473 17.508323669433594
v 0.9968264102935791 -6.111623287200928 17.584592819213867
v 0.9968264102935791 -6.111623287200928 17.584592819213867
v 0.9968264102935791 -6.147622108459473 17.43205451965332
v 0.9968264102935791 -6.165621757507324 17.43205451965332
v 1.0321305990219116 -6.147622108459473 17.43205451965332
v 1.0321305990219116 -6.165621757507324 17.43205451965332
v 1.0321305990219116 -6.147622108459473 17.508323669433594
v 0.9968264102935791 -6.165621757507324 17.508323669433594
v 0.9968264102935791 -6.111623287200928 17.584592819213867
v 1.0321305990219116 -6.111623287200928 17.584592819213867
v 1.0321305990219116 -6.093624114990234 17.584592819213867
v 1.0321305990219116 -6.111623287200928 17.508323669433594
v 1.0321305990219116 -6.165621757507324 17.43205451965332
v 1.0321305990219116 -6.129622936248779 17.43205451965332
v 1.0321305990219116 -6.129622936248779 17.43205451965332
v 1.0321305990219116 -6.147622108459473 17.43205451965332
v 1.0321305990219116 -6.093624114990234 17.584592819213867
v 0.9968264102935791 -6.093624114990234 17.584592819213867
v 1.0321305990219116 -6.111623287200928 17.584592819213867
v 0.9968264102935791 -6.111623287200928 17.584592819213867
v 0.9968264102935791 -6.111623287200928 17.584592819213867
v 0.9968264102935791 -6.129622936248779 17.43205451965332
v 1.0321305990219116 -6.129622936248779 17.43205451965332
v 0.9968264102935791 -6.147622108459473 17.43205451965332
v 0.9968264102935791 -6.147622108459473 17.43205451965332
v 1.0321305990219116 -6.147622108459473 17.43205451965332
vt 0.21995499730110168 0.9965630769729614
vt 0.25383076071739197 0.9965630769729614
vt 0.22300104796886444 0.9131212830543518
vt 0.26287660002708435 0.9132346510887146
vt 0.2260470986366272 0.8296794891357422
vt 0.27192243933677673 0.829792857170105
vt 0.2739531397819519 0.7653975486755371
vt 0.23186227679252625 0.7648307085037231
vt 0.23896972835063934 0.7075778245925903
vt 0.2768145799636841 0.7081446647644043
vt 0.2694302201271057 0.6565604209899902
vt 0.2464463859796524 0.6558802127838135
vt 0.2651841938495636 0.6307116150856018
vt 0.2809682786464691 0.6208482384681702
vt 0.2909371554851532 0.6567871570587158
vt 0.30302906036376953 0.6172203421592712
vt 0.31530556082725525 0.6565604209899902
vt 0.32518213987350464 0.6206215023994446
vt 0.33681249618530273 0.6561069488525391
vt 0.34105849266052246 0.6301447749137878
vt 0.3600732386112213 0.6550865769386292
vt 0.368196040391922 0.7066708207130432
vt 0.330074280500412 0.7078045606613159
vt 0.286414235830307 0.9965630769729614
vt 0.324535995721817 0.9965630769729614
vt 0.3335818350315094 0.7649440765380859
vt 0.3760419189929962 0.763923704624176
vt 0.38268783688545227 0.8294527530670166
vt 0.33662790060043335 0.8296794891357422
vt 0.3468737006187439 0.9131212830543518
vt 0.35711950063705444 0.9965630769729614
vt 0.3868415355682373 0.913007915019989
vt 0.39108753204345703 0.9965630769729614
vt 0.6990153789520264 0.264406681060791
vt 0.7433215379714966 0.2607787847518921
vt 0.6468633413314819 0.2648601531982422
vt 0.7883661389350891 0.23288926482200623
vt 0.5569587349891663 0.23492994904518127
vt 0.6024648547172546 0.2620258629322052
vt 0.5566818118095398 0.2552235424518585
vt 0.7890122532844543 0.25318285822868347
vt 0.9760211706161499 0.41995304822921753
vt 0.9760211706161499 0.24785436689853668
vt 0.9606063365936279 0.421200156211853
vt 0.9608832001686096 0.3349240720272064
vt 0.9610678553581238 0.24864797294139862
vt 0.9760211706161499 0.18119162321090698
vt 0.9642984867095947 0.18153174221515656
vt 0.9760211706161499 0.12189806997776031
vt 0.9678983688354492 0.12189806997776031
vt 0.9760211706161499 0.06986032426357269
vt 0.9710367321968079 0.06793300062417984
vt 0.8373798131942749 0.3155374526977539
vt 0.829626202583313 0.3120229244232178
vt 0.8566714525222778 0.2714357376098633
vt 0.8475332856178284 0.2697351574897766
vt 0.865071177482605 0.24570029973983765
vt 0.8559330105781555 0.243886336684227
vt 0.8723632097244263 0.21406950056552887
vt 0.8632250428199768 0.21202881634235382
vt 0.8703324794769287 0.18005791306495667
vt 0.8792860507965088 0.1824387162923813
vt 0.8738400936126709 0.15318875014781952
vt 0.8828859329223633 0.15556955337524414
vt 0.8758707642555237 0.10727308690547943
vt 0.8843628168106079 0.10749983042478561
vt 0.9760211706161499 0.4200664460659027
vt 0.9606986045837402 0.4213135242462158
vt 0.9760211706161499 0.24796773493289948
vt 0.9608832001686096 0.3350374400615692
vt 0.9611601233482361 0.2487613409757614
vt 0.9760211706161499 0.18130500614643097
vt 0.9643908143043518 0.18164511024951935
vt 0.9760211706161499 0.1220114454627037
vt 0.9678983688354492 0.1220114454627037
vt 0.9760211706161499 0.06997369229793549
vt 0.9711290001869202 0.06804636865854263
vt 0.63080233335495 0.523348331451416
vt 0.6321868896484375 0.5232349634170532
vt 0.6297869682312012 0.5445488691329956
vt 0.6321868896484375 0.5232349634170532
vt 0.6296947002410889 0.5222145915031433
vt 0.630248486995697 0.5207407474517822
vt 0.585573136806488 0.5222145915031433
vt 0.5846500992774963 0.5210809111595154
vt 0.583265483379364 0.5232349634170532
vt 0.5846500992774963 0.523348331451416
vt 0.5859423279762268 0.5232349634170532
vt 0.5863115787506104 0.5490837693214417
vt 0.629233181476593 0.5232349634170532
vt 0.6288639307022095 0.5490837693214417
vt 0.629233181476593 0.5232349634170532
vt 0.5859423279762268 0.5232349634170532
vt 0.5863115787506104 0.5490837693214417
vt 0.5846500992774963 0.523348331451416
vt 0.5852962136268616 0.5445488691329956
vt 0.6288639307022095 0.5490837693214417
vt 0.63080233335495 0.523348331451416
vt 0.6297869682312012 0.5445488691329956
vt 0.5846500992774963 0.523348331451416
vt 0.583265483379364 0.5232349634170532
vt 0.5852962136268616 0.5445488691329956
vt 0.5074835419654846 0.356124609708786
vt 0.5089603662490845 0.356351375579834
vt 0.5049912929534912 0.3655345141887665
vt 0.5089603662490845 0.36587461829185486
vt 0.5089603662490845 0.3733571767807007
vt 0.5049912929534912 0.37369728088378906
vt 0.5089603662490845 0.38299378752708435
vt 0.5074835419654846 0.38322052359580994
vt 0.5063758492469788 0.384694367647171
vt 0.49936071038246155 0.37528449296951294
vt 0.49936071038246155 0.3639473021030426
vt 0.5049912929534912 0.3655345141887665
vt 0.5074835419654846 0.356124609708786
vt 0.5063758492469788 0.3546507954597473
vt 0.5114526152610779 0.384694367647171
vt 0.5103449821472168 0.38322052359580994
vt 0.5184677243232727 0.37528449296951294
vt 0.5128371715545654 0.37369728088378906
vt 0.5128371715545654 0.3655345141887665
vt 0.5184677243232727 0.3640606701374054
vt 0.511544942855835 0.3546507954597473
vt 0.5104372501373291 0.356124609708786
vt 0.5089603662490845 0.38299378752708435
vt 0.5089603662490845 0.3733571767807007
vt 0.5128371715545654 0.37369728088378906
vt 0.5089603662490845 0.36587461829185486
vt 0.5128371715545654 0.3655345141887665
vt 0.5104372501373291 0.356124609708786
vt 0.5089603662490845 0.356351375579834
vt 0.5114526152610779 0.384694367647171
vt 0.5063758492469788 0.384694367647171
vt 0.5103449821472168 0.38322052359580994
vt 0.5089603662490845 0.38299378752708435
vt 0.5074835419654846 0.38322052359580994
vt 0.5063758492469788 0.3546507954597473
vt 0.511544942855835 0.3546507954597473
vt 0.5074835419654846 0.356124609708786
vt 0.5089603662490845 0.356351375579834
vt 0.5104372501373291 0.356124609708786
vt 0.511544942855835 0.384694367647171
vt 0.5104372501373291 0.38322052359580994
vt 0.5185600519180298 0.37528449296951294
vt 0.5129294991493225 0.37369728088378906
vt 0.5184677243232727 0.3639473021030426
vt 0.5129294991493225 0.3655345141887665
vt 0.511544942855835 0.3546507954597473
vt 0.5104372501373291 0.356124609708786
vt 0.5090526938438416 0.356351375579834
vt 0.5089603662490845 0.36587461829185486
vt 0.5089603662490845 0.3733571767807007
vt 0.5129294991493225 0.37369728088378906
vt 0.5090526938438416 0.38288041949272156
vt 0.5104372501373291 0.38322052359580994
vt 0.5090526938438416 0.356351375579834
vt 0.5089603662490845 0.36587461829185486
vt 0.5075758099555969 0.356124609708786
vt 0.5050836205482483 0.3655345141887665
vt 0.5050836205482483 0.37369728088378906
vt 0.5089603662490845 0.3733571767807007
vt 0.5090526938438416 0.38288041949272156
vt 0.5075758099555969 0.38322052359580994
vt 0.5064681768417358 0.3845809996128082
vt 0.49945303797721863 0.37528449296951294
vt 0.5050836205482483 0.3655345141887665
vt 0.49945303797721863 0.3640606701374054
vt 0.5064681768417358 0.3546507954597473
vt 0.5075758099555969 0.356124609708786
vt 0.5064681768417358 0.3845809996128082
vt 0.511544942855835 0.384694367647171
vt 0.5075758099555969 0.38322052359580994
vt 0.5090526938438416 0.38288041949272156
vt 0.5104372501373291 0.38322052359580994
vt 0.511544942855835 0.3546507954597473
vt 0.5064681768417358 0.3546507954597473
vt 0.5104372501373291 0.356124609708786
vt 0.5090526938438416 0.356351375579834
vt 0.5075758099555969 0.356124609708786
vn -0.15593227744102478 -0.9591882824897766 0.23588760197162628
vn -0.10925322771072388 -0.96242356300354 0.24860523641109467
vn -0.1204676702618599 -0.9632364511489868 0.2401314377784729
vn -0.0867176353931427 -0.9647152423858643 0.24860523641109467
vn -0.08287568390369415 -0.9616986513137817 0.2612801790237427
vn -0.0377076081931591 -0.9645262360572815 0.2612801790237427
vn -0.0339391864836216 -0.9574809670448303 0.2864931523799896
vn -0.073473259806633 -0.9539961814880371 0.29067665338516235
vn -0.09037499129772186 -0.9512587189674377 0.2948545813560486
vn -0.0339391864836216 -0.9574809670448303 0.2864931523799896
vn -0.08850524574518204 -0.9527192115783691 0.29067665338516235
vn -0.12424197793006897 -0.9461219906806946 0.2990269064903259
vn -0.10351523011922836 -0.9512053728103638 0.29067665338516235
vn -0.0659501776099205 -0.954545795917511 0.29067665338516235
vn -0.032055821269750595 -0.9587892293930054 0.28230419754981995
vn -0.0018859864212572575 -0.9593231081962585 0.28230419754981995
vn 0.028285713866353035 -0.9589078426361084 0.28230419754981995
vn 0.06407291442155838 -0.955937385559082 0.2864931523799896
vn 0.08474916219711304 -0.9530606865882874 0.29067665338516235
vn 0.10726384818553925 -0.9507899880409241 0.29067665338516235
vn 0.12424197793006897 -0.9461219906806946 0.2990269064903259
vn 0.09037499129772186 -0.9512587189674377 0.2948545813560486
vn 0.0339391864836216 -0.9574809670448303 0.2864931523799896
vn -0.035861898213624954 -0.9668445587158203 0.25283506512641907
vn 0.03208842873573303 -0.9669771194458008 0.25283506512641907
vn 0.04901212453842163 -0.9568278193473816 0.2864931523799896
vn 0.06971225887537003 -0.9542784094810486 0.29067665338516235
vn 0.08287568390369415 -0.9616986513137817 0.2612801790237427
vn 0.03582494333386421 -0.963446319103241 0.26549527049064636
vn 0.0867176353931427 -0.9647152423858643 0.24860523641109467
vn 0.10925322771072388 -0.96242356300354 0.24860523641109467
vn 0.1204676702618599 -0.9632364511489868 0.2401314377784729
vn 0.15220630168914795 -0.959786593914032 0.23588760197162628
vn -2.0682311115474694e-13 0 -1
vn -0.002184688812121749 -0.0037839922588318586 -0.9999904632568359
vn -0.002184688812121749 -0.0037839922588318586 -0.9999904632568359
vn -0.002184688812121749 -0.0037839922588318586 -0.9999904632568359
vn -0.002184688812121749 -0.0037839922588318586 -0.9999904632568359
vn -0.002184688812121749 -0.0037839922588318586 -0.9999904632568359
vn -0.002184688812121749 -0.0037839922588318586 -0.9999904632568359
vn 0.004369377624243498 0 -0.9999904632568359
vn -0.999053955078125 0.02263815514743328 0.03713129088282585
vn -0.9980841279029846 0.041529733687639236 0.04586252197623253
vn -0.9985980987548828 0.03772452101111412 0.03713129088282585
vn -0.9984372854232788 0.0452716089785099 0.03276457265019417
vn -0.9971450567245483 0.022649366408586502 0.07203252613544464
vn -0.9942469596862793 0.007544876541942358 0.10684575140476227
vn -0.9916970729827881 -0.0037763919681310654 0.12854042649269104
vn -0.9899054169654846 0.007548397872596979 0.1415284425020218
vn -0.9884795546531677 -0.01886863447725773 0.15017375349998474
vn -0.9860212206840515 -0.0339709147810936 0.16312000155448914
vn -0.9797791838645935 -0.08666642010211945 0.18033768236637115
vn -0.7940927147865295 -0.00753713259473443 0.607749879360199
vn -0.7940927147865295 -0.00753713259473443 0.607749879360199
vn -0.713934600353241 -0.011309643276035786 0.7001210451126099
vn -0.6230638027191162 -0.015059951692819595 0.7820260524749756
vn -0.40615659952163696 -0.030077829957008362 0.913308322429657
vn -0.2835078537464142 -0.022500835359096527 0.9587059020996094
vn 6.767443423954644e-15 -0.021845221519470215 0.9997613430023193
vn 0.0015174545114859939 -0.008605912327766418 0.999961793422699
vn 0.2835078537464142 -0.022500835359096527 0.9587059020996094
vn 0.40615659952163696 -0.030077829957008362 0.913308322429657
vn 0.6230638027191162 -0.015059951692819595 0.7820260524749756
vn 0.7138649225234985 -0.015079033561050892 0.7001210451126099
vn 0.7940927147865295 -0.00753713259473443 0.607749879360199
vn 0.7940927147865295 -0.00753713259473443 0.607749879360199
vn 0.999053955078125 0.02263815514743328 0.03713129088282585
vn 0.9985980987548828 0.03772452101111412 0.03713129088282585
vn 0.99823397397995 0.037756189703941345 0.04586252197623253
vn 0.9984372854232788 0.0452716089785099 0.03276457265019417
vn 0.9971450567245483 0.022649366408586502 0.07203252613544464
vn 0.9942469596862793 0.007544876541942358 0.10684575140476227
vn 0.9916754961013794 -0.007552728988230228 0.12854042649269104
vn 0.9899054169654846 0.007548397872596979 0.1415284425020218
vn 0.9884003400802612 -0.022641755640506744 0.15017375349998474
vn 0.9858840107917786 -0.0377437099814415 0.16312000155448914
vn 0.9794395565986633 -0.09042409807443619 0.18033768236637115
vn -0.8833631277084351 -0.4098353087902069 -0.22738653421401978
vn -0.99952232837677 0.030202379450201988 0.006554040592163801
vn -0.99952232837677 0.030202379450201988 0.006554040592163801
vn -0.689320981502533 -0.2553614675998688 -0.677958071231842
vn -0.3892624080181122 -0.6339539885520935 -0.6682642698287964
vn -0.25294050574302673 -0.3777022063732147 -0.8907088041305542
vn 0.3848334848880768 -0.5483183264732361 -0.7424622178077698
vn 0.38114026188850403 -0.3691137433052063 -0.8476362228393555
vn 0.6894437670707703 -0.28711050748825073 -0.6650074124336243
vn 0.8802114129066467 -0.423289030790329 -0.21460255980491638
vn 0.42114320397377014 -0.8577290773391724 -0.2948545813560486
vn 0.3484787344932556 -0.8869251608848572 0.30319350957870483
vn -0.5521984696388245 -0.8056193590164185 -0.21460255980491638
vn -0.25710850954055786 -0.9133756756782532 0.31565824151039124
vn 0.0018873782828450203 -0.9432094693183899 0.33219319581985474
vn 0.0018873782828450203 -0.9432094693183899 0.33219319581985474
vn 0.3484787344932556 -0.8869251608848572 0.30319350957870483
vn 0.17439773678779602 -0.9407935738563538 0.29067665338516235
vn 0.17439773678779602 -0.9407935738563538 0.29067665338516235
vn -0.25710850954055786 -0.9133756756782532 0.31565824151039124
vn -0.17252662777900696 -0.9398379325866699 0.2948545813560486
vn -0.17252662777900696 -0.9398379325866699 0.2948545813560486
vn 0.8802114129066467 -0.423289030790329 -0.21460255980491638
vn 0.9995501041412354 -0.022649399936199188 0.01966099627315998
vn 0.9995501041412354 -0.022649399936199188 0.01966099627315998
vn 0.7872732877731323 -0.5141138434410095 -0.34042292833328247
vn 0.40216147899627686 -0.8624380826950073 -0.30735430121421814
vn 0.44288143515586853 -0.8954064249992371 -0.04586252197623253
vn 0.43609869480133057 -0.8987294435501099 -0.04586252197623253
vn 0.44001808762550354 -0.8149601817131042 0.37712597846984863
vn 0.8006792664527893 -0.4412107467651367 0.405272513628006
vn 0.40162259340286255 -0.62271648645401 0.6715083718299866
vn 0.7036424279212952 -0.3902750313282013 0.5937783122062683
vn 0.8942859768867493 -0.11282256990671158 0.43303996324539185
vn 0.9578257203102112 -0.15781888365745544 0.2401314377784729
vn 0.9548881649971008 -0.2610713243484497 -0.1415284425020218
vn 0.9568511247634888 -0.25378257036209106 -0.1415284425020218
vn 0.7872732877731323 -0.5141138434410095 -0.34042292833328247
vn 0.8973029255867004 -0.30426087975502014 -0.3198012113571167
vn -0.8970912098884583 -0.12032318860292435 0.42514660954475403
vn -0.7028121948242188 -0.39705389738082886 0.590256929397583
vn -0.9561277031898499 -0.16156375408172607 0.24437066912651062
vn -0.9561277031898499 -0.16156375408172607 0.24437066912651062
vn -0.9548881649971008 -0.2610713243484497 -0.1415284425020218
vn -0.9568511247634888 -0.25378257036209106 -0.1415284425020218
vn -0.8940863013267517 -0.3004286289215088 -0.33219319581985474
vn -0.6035492420196533 -0.7248282432556152 -0.33219319581985474
vn -0.4272978603839874 -0.6195584535598755 0.6584556698799133
vn -0.42975395917892456 -0.7292677760124207 0.5324283838272095
vn -0.4380941092967987 -0.8141152858734131 0.3811691105365753
vn -0.43949320912361145 -0.8970743417739868 -0.04586252197623253
vn -0.43269792199134827 -0.9003716707229614 -0.04586252197623253
vn -0.6035492420196533 -0.7248282432556152 -0.33219319581985474
vn -0.42452940344810486 -0.8560581803321838 -0.2948545813560486
vn 0.0037409996148198843 0.21670354902744293 0.976230263710022
vn 0.009358027018606663 0.22506405413150787 0.9742990136146545
vn -0.009391163475811481 0.23782473802566528 0.9712626934051514
vn 0.015010898001492023 0.2290220409631729 0.9733054637908936
vn 0.04832257702946663 0.2069001942873001 0.9771679639816284
vn -0.0018934921827167273 -0.25916382670402527 -0.9658315181732178
vn -0.00757252611219883 -0.25060638785362244 -0.9680594801902771
vn 0.009463461115956306 -0.24206671118736267 -0.9702134728431702
vn -0.013214554637670517 -0.24613407254219055 -0.9691457152366638
vn -0.050826296210289 -0.2712906002998352 -0.961154580116272
vn -0.8970912098884583 -0.12032318860292435 0.42514660954475403
vn -0.7869328856468201 -0.2989098131656647 0.5398051738739014
vn -0.939642071723938 -0.1503533571958542 0.30735430121421814
vn -0.9676628112792969 -0.17637182772159576 0.18033768236637115
vn -0.9679656624794006 -0.2391800880432129 -0.0763898640871048
vn -0.715118944644928 -0.6870824694633484 -0.12854042649269104
vn -0.8940863013267517 -0.3004286289215088 -0.33219319581985474
vn -0.7007543444633484 -0.6246949434280396 -0.34452807903289795
vn -0.40216147899627686 -0.8624380826950073 -0.30735430121421814
vn -0.43269792199134827 -0.9003716707229614 -0.04586252197623253
vn -0.4433351457118988 -0.8131604790687561 0.37712597846984863
vn -0.43291282653808594 -0.7246791124343872 0.5361219048500061
vn -0.404788076877594 -0.6206634640693665 0.6715083718299866
vn -0.7869328856468201 -0.2989098131656647 0.5398051738739014
vn 0.4279089570045471 -0.8543738722801208 -0.2948545813560486
vn 0.44288143515586853 -0.8954064249992371 -0.04586252197623253
vn 0.6064451932907104 -0.7224069833755493 -0.33219319581985474
vn 0.4292910099029541 -0.9020010232925415 -0.04586252197623253
vn 0.7181316018104553 -0.5478708148002625 0.42909738421440125
vn 0.43502089381217957 -0.7761101722717285 0.456519216299057
vn 0.40162259340286255 -0.62271648645401 0.6715083718299866
vn 0.7036424279212952 -0.3902750313282013 0.5937783122062683
vn 0.8942859768867493 -0.11282256990671158 0.43303996324539185
vn 0.9669791460037231 -0.18008236587047577 0.18033768236637115
vn 0.9548881649971008 -0.2610713243484497 -0.1415284425020218
vn 0.9568511247634888 -0.25378257036209106 -0.1415284425020218
vn 0.8952814936637878 -0.2968480587005615 -0.33219319581985474
vn 0.6064451932907104 -0.7224069833755493 -0.33219319581985474
vn -0.0037409996148198843 0.21670354902744293 0.976230263710022
vn -0.013097618706524372 0.22487741708755493 0.9742990136146545
vn 0.013144352473318577 0.23764684796333313 0.9712626934051514
vn -0.015010898001492023 0.2290220409631729 0.9733054637908936
vn -0.05559428408741951 0.20506592094898224 0.9771679639816284
vn -0.0018934921827167273 -0.25916382670402527 -0.9658315181732178
vn 0.00757252611219883 -0.25060638785362244 -0.9680594801902771
vn -0.013245608657598495 -0.24188923835754395 -0.9702134728431702
vn 0.015138142742216587 -0.2502633333206177 -0.9680594801902771
vn 0.05454316362738609 -0.27056780457496643 -0.961154580116272
f 1/1/1 2/2/2 3/3/3
f 2/2/2 4/4/4 3/3/3
f 3/3/3 4/4/4 3/3/3
f 4/4/4 5/5/5 3/3/3
f 3/3/3 5/5/5 6/6/6
f 5/5/5 7/7/7 6/6/6
f 6/6/6 7/7/7 8/8/8
f 7/7/7 9/9/9 8/8/8
f 8/8/8 9/9/9 10/10/10
f 9/9/9 11/11/11 10/10/10
f 10/10/10 11/11/11 12/12/12
f 11/11/11 13/13/13 12/12/12
f 12/12/12 13/13/13 14/14/14
f 13/13/13 15/15/15 14/14/14
f 16/16/16 17/17/17 18/18/18
f 17/17/17 19/19/19 18/18/18
f 18/18/18 19/19/19 20/20/20
f 19/19/19 21/21/21 20/20/20
f 20/20/20 21/21/21 20/20/20
f 21/21/21 22/22/22 20/20/20
f 20/20/20 22/22/22 23/23/23
f 22/22/22 22/22/22 23/23/23
f 23/23/23 22/22/22 24/24/24
f 22/22/22 25/25/25 24/24/24
f 24/24/24 25/25/25 24/24/24
f 25/25/25 26/26/26 24/24/24
f 24/24/24 26/26/26 27/27/27
f 26/26/26 26/26/26 27/27/27
f 27/27/27 26/26/26 28/28/28
f 26/26/26 26/26/26 28/28/28
f 28/28/28 26/26/26 29/29/29
f 26/26/26 30/30/30 29/29/29
f 29/29/29 30/30/30 31/31/31
f 30/30/30 32/32/32 31/31/31
f 31/31/31 32/32/32 33/33/33
f 32/32/32 34/34/34 33/33/33
f 33/33/33 34/34/34 35/35/35
f 34/34/34 34/34/34 35/35/35
f 35/35/35 34/34/34 36/36/36
f 34/34/34 34/34/34 36/36/36
f 36/36/36 34/34/34 37/37/37
f 34/34/34 34/34/34 37/37/37
f 37/37/37 34/34/34 38/38/38
f 34/34/34 32/32/32 38/38/38
f 38/38/38 32/32/32 25/25/25
f 32/32/32 30/30/30 25/25/25
f 25/25/25 30/30/30 26/26/26
f 30/30/30 26/26/26 26/26/26
f 26/26/26 26/26/26 17/17/17
f 26/26/26 17/17/17 17/17/17
f 17/17/17 17/17/17 19/19/19
f 17/17/17 39/39/39 19/19/19
f 19/19/19 39/39/39 21/21/21
f 39/39/39 40/40/40 21/21/21
f 21/21/21 40/40/40 40/40/40
f 40/40/40 25/25/25 40/40/40
f 40/40/40 25/25/25 25/25/25
f 25/25/25 22/22/22 25/25/25
f 25/25/25 22/22/22 38/38/38
f 22/22/22 41/41/41 38/38/38
f 38/38/38 41/41/41 37/37/37
f 41/41/41 41/41/41 37/37/37
f 37/37/37 41/41/41 42/42/42
f 41/41/41 41/41/41 42/42/42
f 42/42/42 41/41/41 43/43/43
f 41/41/41 44/44/44 43/43/43
f 43/43/43 44/44/44 45/45/45
f 44/44/44 40/40/40 45/45/45
f 45/45/45 40/40/40 45/45/45
f 40/40/40 46/46/46 45/45/45
f 45/45/45 46/46/46 47/47/47
f 46/46/46 48/48/48 47/47/47
f 47/47/47 48/48/48 48/48/48
f 48/48/48 41/41/41 48/48/48
f 48/48/48 41/41/41 41/41/41
f 41/41/41 22/22/22 41/41/41
f 41/41/41 22/22/22 44/44/44
f 22/22/22 21/21/21 44/44/44
f 44/44/44 21/21/21 40/40/40
f 21/21/21 40/40/40 40/40/40
f 40/40/40 40/40/40 45/45/45
f 40/40/40 45/45/45 45/45/45
f 45/45/45 45/45/45 43/43/43
f 45/45/45 47/47/47 43/43/43
f 43/43/43 47/47/47 47/47/47
f 47/47/47 49/49/49 47/47/47
f 47/47/47 49/49/49 49/49/49
f 49/49/49 50/50/50 49/49/49
f 49/49/49 50/50/50 51/51/51
f 50/50/50 52/52/52 51/51/51
f 51/51/51 52/52/52 51/51/51
f 52/52/52 53/53/53 51/51/51
f 51/51/51 53/53/53 54/54/54
f 53/53/53 55/55/55 54/54/54
f 54/54/54 55/55/55 55/55/55
f 55/55/55 50/50/50 55/55/55
f 55/55/55 50/50/50 50/50/50
f 50/50/50 56/56/56 50/50/50
f 50/50/50 56/56/56 52/52/52
f 56/56/56 52/52/52 52/52/52
f 52/52/52 52/52/52 57/57/57
f 52/52/52 57/57/57 57/57/57
f 57/57/57 57/57/57 58/58/58
f 57/57/57 59/59/59 58/58/58
f 58/58/58 59/59/59 58/58/58
f 59/59/59 60/60/60 58/58/58
f 58/58/58 60/60/60 58/58/58
f 60/60/60 61/61/61 58/58/58
f 58/58/58 61/61/61 62/62/62
f 61/61/61 63/63/63 62/62/62
f 62/62/62 63/63/63 64/64/64
f 63/63/63 65/65/65 64/64/64
f 64/64/64 65/65/65 66/66/66
f 65/65/65 67/67/67 66/66/66
f 66/66/66 67/67/67 67/67/67
f 67/67/67 68/68/68 67/67/67
f 67/67/67 68/68/68 68/68/68
f 68/68/68 69/69/69 68/68/68
f 68/68/68 69/69/69 70/70/70
f 69/69/69 71/71/71 70/70/70
f 70/70/70 71/71/71 72/72/72
f 71/71/71 73/73/73 72/72/72
f 72/72/72 73/73/73 74/74/74
f 73/73/73 75/75/75 74/74/74
f 74/74/74 75/75/75 74/74/74
f 75/75/75 76/76/76 74/74/74
f 74/74/74 76/76/76 77/77/77
f 76/76/76 78/78/78 77/77/77
f 77/77/77 78/78/78 79/79/79
f 78/78/78 80/80/80 79/79/79
f 79/79/79 80/80/80 81/81/81
f 80/80/80 81/81/81 81/81/81
f 81/81/81 81/81/81 82/82/82
f 81/81/81 82/82/82 82/82/82
f 82/82/82 82/82/82 83/83/83
f 82/82/82 84/84/84 83/83/83
f 83/83/83 84/84/84 85/85/85
f 84/84/84 84/84/84 85/85/85
f 85/85/85 84/84/84 86/86/86
f 84/84/84 87/87/87 86/86/86
f 86/86/86 87/87/87 88/88/88
f 87/87/87 89/89/89 88/88/88
f 88/88/88 89/89/89 90/90/90
f 89/89/89 91/91/91 90/90/90
f 90/90/90 91/91/91 92/92/92
f 91/91/91 92/92/92 92/92/92
f 92/92/92 92/92/92 93/93/93
f 92/92/92 93/93/93 93/93/93
f 93/93/93 93/93/93 94/94/94
f 93/93/93 95/95/95 94/94/94
f 94/94/94 95/95/95 95/95/95
f 95/95/95 93/93/93 95/95/95
f 95/95/95 93/93/93 93/93/93
f 93/93/93 96/96/96 93/93/93
f 93/93/93 96/96/96 97/97/97
f 96/96/96 98/98/98 97/97/97
f 97/97/97 98/98/98 99/99/99
f 98/98/98 100/100/100 99/99/99
f 99/99/99 100/100/100 99/99/99
f 100/100/100 101/101/101 99/99/99
f 99/99/99 101/101/101 99/99/99
f 101/101/101 102/102/102 99/99/99
f 99/99/99 102/102/102 103/103/103
f 102/102/102 104/104/104 103/103/103
f 103/103/103 104/104/104 104/104/104
f 104/104/104 99/99/99 104/104/104
f 104/104/104 99/99/99 99/99/99
f 99/99/99 103/103/103 99/99/99
f 99/99/99 103/103/103 97/97/97
f 103/103/103 105/105/105 97/97/97
f 97/97/97 105/105/105 93/93/93
f 105/105/105 106/106/106 93/93/93
f 93/93/93 106/106/106 106/106/106
f 106/106/106 107/107/107 106/106/106
f 106/106/106 107/107/107 107/107/107
f 107/107/107 108/108/108 107/107/107
f 107/107/107 108/108/108 106/106/106
f 108/108/108 109/109/109 106/106/106
f 106/106/106 109/109/109 109/109/109
f 109/109/109 110/110/110 109/109/109
f 109/109/109 110/110/110 110/110/110
f 110/110/110 111/111/111 110/110/110
f 110/110/110 111/111/111 109/109/109
f 111/111/111 109/109/109 109/109/109
f 109/109/109 109/109/109 112/112/112
f 109/109/109 112/112/112 112/112/112
f 112/112/112 112/112/112 113/113/113
f 112/112/112 114/114/114 113/113/113
f 113/113/113 114/114/114 114/114/114
f 114/114/114 115/115/115 114/114/114
f 114/114/114 115/115/115 115/115/115
f 115/115/115 116/116/116 115/115/115
f 115/115/115 116/116/116 117/117/117
f 116/116/116 117/117/117 117/117/117
f 117/117/117 117/117/117 118/118/118
f 117/117/117 118/118/118 118/118/118
f 118/118/118 118/118/118 119/119/119
f 118/118/118 120/120/120 119/119/119
f 119/119/119 120/120/120 121/121/121
f 120/120/120 120/120/120 121/121/121
f 121/121/121 120/120/120 122/122/122
f 120/120/120 123/123/123 122/122/122
f 122/122/122 123/123/123 124/124/124
f 123/123/123 123/123/123 124/124/124
f 124/124/124 123/123/123 125/125/125
f 123/123/123 123/123/123 125/125/125
f 125/125/125 123/123/123 126/126/126
f 123/123/123 123/123/123 126/126/126
f 126/126/126 123/123/123 127/127/127
f 123/123/123 123/123/123 127/127/127
f 127/127/127 123/123/123 128/128/128
f 123/123/123 129/129/129 128/128/128
f 128/128/128 129/129/129 128/128/128
f 129/129/129 130/130/130 128/128/128
f 128/128/128 130/130/130 131/131/131
f 130/130/130 131/131/131 131/131/131
f 131/131/131 131/131/131 132/132/132
f 131/131/131 132/132/132 132/132/132
f 132/132/132 132/132/132 133/133/133
f 132/132/132 134/134/134 133/133/133
f 133/133/133 134/134/134 135/135/135
f 134/134/134 134/134/134 135/135/135
f 135/135/135 134/134/134 136/136/136
f 134/134/134 137/137/137 136/136/136
f 136/136/136 137/137/137 136/136/136
f 137/137/137 138/138/138 136/136/136
f 136/136/136 138/138/138 139/139/139
f 138/138/138 139/139/139 139/139/139
f 139/139/139 139/139/139 140/140/140
f 139/139/139 140/140/140 140/140/140
f 140/140/140 140/140/140 141/141/141
f 140/140/140 133/133/133 141/141/141
f 141/141/141 133/133/133 141/141/141
f 133/133/133 142/142/142 141/141/141
f 141/141/141 142/142/142 143/143/143
f 142/142/142 144/144/144 143/143/143
f 143/143/143 144/144/144 143/143/143
f 144/144/144 145/145/145 143/143/143
f 143/143/143 145/145/145 146/146/146
f 145/145/145 146/146/146 146/146/146
f 146/146/146 146/146/146 147/147/147
f 146/146/146 147/147/147 147/147/147
f 147/147/147 147/147/147 148/148/148
f 147/147/147 149/149/149 148/148/148
f 148/148/148 149/149/149 148/148/148
f 149/149/149 150/150/150 148/148/148
f 148/148/148 150/150/150 151/151/151
f 150/150/150 151/151/151 151/151/151
f 151/151/151 151/151/151 152/152/152
f 151/151/151 152/152/152 152/152/152
f 152/152/152 152/152/152 153/153/153
f 152/152/152 154/154/154 153/153/153
f 153/153/153 154/154/154 153/153/153
f 154/154/154 155/155/155 153/153/153
f 153/153/153 155/155/155 156/156/156
f 155/155/155 156/156/156 156/156/156
f 156/156/156 156/156/156 157/157/157
f 156/156/156 157/157/157 157/157/157
f 157/157/157 157/157/157 158/158/158
f 157/157/157 159/159/159 158/158/158
f 158/158/158 159/159/159 160/160/160
f 159/159/159 161/161/161 160/160/160
f 160/160/160 161/161/161 162/162/162
f 161/161/161 163/163/163 162/162/162
f 162/162/162 163/163/163 162/162/162
f 163/163/163 164/164/164 162/162/162
f 162/162/162 164/164/164 162/162/162
f 164/164/164 165/165/165 162/162/162
f 162/162/162 165/165/165 162/162/162
f 165/165/165 166/166/166 162/162/162
f 162/162/162 166/166/166 162/162/162
f 166/166/166 167/167/167 162/162/162
f 162/162/162 167/167/167 168/168/168
f 167/167/167 169/169/169 168/168/168
f 168/168/168 169/169/169 170/170/170
f 169/169/169 170/170/170 170/170/170
f 170/170/170 170/170/170 171/171/171
f 170/170/170 171/171/171 171/171/171
f 171/171/171 171/171/171 172/172/172
f 171/171/171 173/173/173 172/172/172
f 172/172/172 173/173/173 172/172/172
f 173/173/173 174/174/174 172/172/172
f 172/172/172 174/174/174 172/172/172
f 174/174/174 175/175/175 172/172/172
f 172/172/172 175/175/175 176/176/176
f 175/175/175 175/175/175 176/176/176
f 176/176/176 175/175/175 177/177/177
f 175/175/175 175/175/175 177/177/177
f 177/177/177 175/175/175 178/178/178
f 175/175/175 175/175/175 178/178/178
f 178/178/178 175/175/175 179/179/179
f 175/175/175 175/175/175 179/179/179
f 179/179/179 175/175/175 180/180/180
f 175/175/175 181/181/181 180/180/180
f 180/180/180 181/181/181 182/182/182
f 181/181/181 181/181/181 182/182/182
f 182/182/182 181/181/181 183/183/183
f 181/181/181 184/184/184 183/183/183
f 183/183/183 184/184/184 184/184/184
f 184/184/184 185/185/185 184/184/184
f 184/184/184 185/185/185 185/185/185
f 185/185/185 186/186/186 185/185/185
f 185/185/185 186/186/186 187/187/187
f 186/186/186 186/186/186 187/187/187
f 187/187/187 186/186/186 188/188/188
f 186/186/186 189/189/189 188/188/188
f 188/188/188 189/189/189 189/189/189
f 189/189/189 190/190/190 189/189/189
f 189/189/189 190/190/190 190/190/190
f 190/190/190 191/191/191 190/190/190
f 190/190/190 191/191/191 192/192/192
f 191/191/191 191/191/191 192/192/192
f 192/192/192 191/191/191 193/193/193
f 191/191/191 194/194/194 193/193/193
