o ramp
v -2.309340000152588 -7.351879119873047 8.989977836608887
v -2.2857887744903564 -6.923287868499756 11.47295093536377
v 0.001303229946643114 -7.350821018218994 8.994460105895996
v 0.001303229946643114 -6.922229766845703 11.47295093536377
v 2.285778284072876 -6.923287868499756 11.47295093536377
v 2.267460584640503 -6.650259494781494 13.068507194519043
v 0.001303229946643114 -6.6481428146362305 13.081953048706055
v 2.2622270584106445 -6.610045909881592 13.310529708862305
v 0.001303229946643114 -6.610045909881592 13.310529708862305
v 2.2465262413024902 -6.3401923179626465 14.91504955291748
v 0.001303229946643114 -6.3401923179626465 14.91504955291748
v -2.2465364933013916 -6.3401923179626465 14.91504955291748
v -2.262237310409546 -6.610045909881592 13.310529708862305
v -2.2674710750579834 -6.650259494781494 13.068507194519043
v -2.3014895915985107 -7.5317816734313965 8.003959655761719
v 0.001303229946643114 -7.5317816734313965 8.003959655761719
v 2.3014791011810303 -7.5317816734313965 8.003959655761719
v 2.3093297481536865 -7.351879119873047 8.989977836608887
v -2.2386860847473145 -6.457657814025879 14.937458992004395
v -2.2386860847473145 -6.347599983215332 14.910568237304688
v 0.003920040093362331 -6.457657814025879 14.937458992004395
v 0.001303229946643114 -6.347599983215332 14.910568237304688
v 2.2177412509918213 -6.347599983215332 14.910568237304688
v 2.2177412509918213 -6.457657814025879 14.937458992004395
v 2.2177412509918213 -5.9380574226379395 17.178409576416016
v 0.003920040093362331 -5.9380574226379395 17.178409576416016
v 2.2177412509918213 -5.931707859039307 17.173927307128906
v 0.001303229946643114 -5.9116010665893555 17.169445037841797
v 2.2177412509918213 -5.9116010665893555 17.169445037841797
v -2.2177517414093018 -5.9116010665893555 17.169445037841797
v -2.2177517414093018 -5.9380574226379395 17.178409576416016
v -2.2177517414093018 -5.931707859039307 17.173927307128906
v -2.2177517414093018 -5.9116010665893555 17.169445037841797
v 0.001303229946643114 -5.9116010665893555 17.169445037841797
v 0.001303229946643114 -5.943348407745361 16.766075134277344
v 2.2177412509918213 -5.9116010665893555 17.169445037841797
v 2.2177412509918213 -5.943348407745361 16.766075134277344
v 2.2177412509918213 -6.109493732452393 15.999670028686523
v 0.001303229946643114 -6.109493732452393 15.999670028686523
v 2.2177412509918213 -6.276697158813477 15.237746238708496
v 0.001303229946643114 -6.276697158813477 15.237746238708496
v 0.001303229946643114 -6.347599983215332 14.910568237304688
v -2.2177517414093018 -6.276697158813477 15.237746238708496
v -2.2177517414093018 -6.347599983215332 14.910568237304688
v -2.2177517414093018 -5.943348407745361 16.766075134277344
v -2.2177517414093018 -6.109493732452393 15.999670028686523
v 2.2177412509918213 -6.347599983215332 14.910568237304688
vt 0.9987592697143555 0.7863680124282837
vt 0.9939568638801575 0.2512400150299072
vt 0.5008028745651245 0.7856218814849854
vt 0.5007724761962891 0.2507176995277405
vt 0.007618472445756197 0.2512400150299072
vt 0.011904125101864338 -0.09339974820613861
vt 0.5007724761962891 -0.0959366112947464
vt 0.01284636091440916 -0.14577843248844147
vt 0.5007724761962891 -0.14577843248844147
vt 0.016463330015540123 -0.4916119873523712
vt 0.5007724761962891 -0.4916119873523712
vt 0.9851120114326477 -0.4916119873523712
vt 0.9887290000915527 -0.14577843248844147
vt 0.9896712303161621 -0.09339974820613861
vt 0.9973610639572144 0.9988672733306885
vt 0.5008028745651245 0.9988672733306885
vt 0.004214266315102577 0.9988672733306885
vt 0.0028161099180579185 0.7863680124282837
vt 0.9975738525390625 1.9121365547180176
vt 0.997543454170227 1.9478763341903687
vt 0.5321701765060425 1.9121365547180176
vt 0.5322917699813843 1.9532485008239746
vt 0.9983033537864685 1.9478763341903687
vt 0.9981817603111267 1.9121365547180176
vt 0.9981817603111267 0.8781426548957825
vt 0.5321701765060425 0.8781426548957825
vt 0.9981817603111267 0.8751580715179443
vt 0.5322917699813843 0.8654583096504211
vt 0.9984248876571655 0.8654583096504211
vt 0.997543454170227 0.8654583096504211
vt 0.9975738525390625 0.8781426548957825
vt 0.9975738525390625 0.8751580715179443
vt 0.9919812083244324 -0.0045350720174610615
vt 0.4992831349372864 -0.0045350720174610615
vt 0.4993135333061218 0.0826134979724884
vt 0.9919812083244324 -0.0045350720174610615
vt 0.9919508099555969 0.0826134979724884
vt 0.9919204115867615 0.25220999121665955
vt 0.4994351267814636 0.25220999121665955
vt 0.991890013217926 0.4218810796737671
vt 0.4995262920856476 0.4218810796737671
vt 0.49955669045448303 0.4938085079193115
vt 0.991890013217926 0.4218810796737671
vt 0.991890013217926 0.4938085079193115
vt 0.9919508099555969 0.0826134979724884
vt 0.9919204115867615 0.25220999121665955
vt 0.991890013217926 0.4938085079193115
vn -0.001887991209514439 0.9843814969062805 -0.1760382205247879
vn -1.0195180610112972e-13 0.9858840703964233 -0.16742929816246033
vn -0.001887991209514439 0.9843814969062805 -0.1760382205247879
vn -1.0195180610112972e-13 0.9858840703964233 -0.16742929816246033
vn -1.0195180610112972e-13 0.9858840703964233 -0.16742929816246033
vn -1.0195180610112972e-13 0.9858840703964233 -0.16742929816246033
vn -1.0195180610112972e-13 0.9858840703964233 -0.16742929816246033
vn -1.0195180610112972e-13 0.9858840703964233 -0.16742929816246033
vn -1.0195180610112972e-13 0.9858840703964233 -0.16742929816246033
vn -1.0195180610112972e-13 0.9858840703964233 -0.16742929816246033
vn -1.0195180610112972e-13 0.9858840703964233 -0.16742929816246033
vn -1.0195180610112972e-13 0.9858840703964233 -0.16742929816246033
vn -1.0195180610112972e-13 0.9858840703964233 -0.16742929816246033
vn -1.0195180610112972e-13 0.9858840703964233 -0.16742929816246033
vn 0.0037776012904942036 0.9835975170135498 -0.18033768236637115
vn 0.0037776012904942036 0.9835975170135498 -0.18033768236637115
vn 0.0037776012904942036 0.9835975170135498 -0.18033768236637115
vn -0.001887991209514439 0.9843814969062805 -0.1760382205247879
vn -0.0018921449081972241 -0.22525057196617126 -0.9742990136146545
vn -0.0018921449081972241 -0.22525057196617126 -0.9742990136146545
vn -0.0018921449081972241 -0.22525057196617126 -0.9742990136146545
vn -0.001896943198516965 -0.22099114954471588 -0.9752739667892456
vn -0.001896943198516965 -0.22099114954471588 -0.9752739667892456
vn -0.001896943198516965 -0.22099114954471588 -0.9752739667892456
vn -0.0018777163932099938 0.36698195338249207 0.9302261471748352
vn -0.0018777163932099938 0.36698195338249207 0.9302261471748352
vn -0.0018777163932099938 0.36698195338249207 0.9302261471748352
vn -0.0018777163932099938 0.36698195338249207 0.9302261471748352
vn -0.0018777163932099938 0.36698195338249207 0.9302261471748352
vn 0.013141262345016003 0.36675140261650085 0.9302261471748352
vn 0.020644066855311394 0.3664056658744812 0.9302261471748352
vn 0.05053745582699776 0.36349037289619446 0.9302261471748352
vn 0.003773982636630535 0.9970709085464478 -0.0763898640871048
vn 0.003773982636630535 0.9970709085464478 -0.0763898640871048
vn -0.001888211234472692 0.9893045425415039 -0.1458524912595749
vn 0.003773982636630535 0.9970709085464478 -0.0763898640871048
vn -0.001888211234472692 0.9893045425415039 -0.1458524912595749
vn 0.0018870825879275799 0.9766996502876282 -0.21460255980491638
vn 0.0018870825879275799 0.9766996502876282 -0.21460255980491638
vn 0.0018870825879275799 0.9766996502876282 -0.21460255980491638
vn 0.0018870825879275799 0.9766996502876282 -0.21460255980491638
vn 0.0018870825879275799 0.9766996502876282 -0.21460255980491638
vn 0.0018870825879275799 0.9766996502876282 -0.21460255980491638
vn 0.0018870825879275799 0.9766996502876282 -0.21460255980491638
vn -0.001888211234472692 0.9893045425415039 -0.1458524912595749
vn 0.0018870825879275799 0.9766996502876282 -0.21460255980491638
vn 0.0018870825879275799 0.9766996502876282 -0.21460255980491638
v -2.3224239349365234 -7.819626808166504 8.003959655761719
v -1.4143908023834229 -7.965665340423584 8.003959655761719
v -2.327657461166382 -7.6757049560546875 8.994460105895996
v -1.409157156944275 -7.8058695793151855 8.976531982421875
v -1.4013067483901978 -7.42384147644043 11.46846866607666
v 0.0013034399598836899 -7.926510334014893 8.981014251708984
v 0.0013034399598836899 -7.522258758544922 11.46846866607666
v 0.0013034399598836899 -8.077839851379395 8.003959655761719
v 1.4091472625732422 -7.8058695793151855 8.976531982421875
v -2.317190170288086 -7.2682785987854 11.47295093536377
v -2.288405418395996 -6.946570873260498 13.140217781066895
v -1.3829890489578247 -7.072502613067627 13.261228561401367
v -2.28055477142334 -6.901065826416016 13.382240295410156
v -1.3646713495254517 -6.716930389404297 15.071916580200195
v -2.25177001953125 -6.57724142074585 15.067434310913086
v -2.5370023250579834 -6.855561256408691 13.122289657592773
v -2.5343854427337646 -6.808998107910156 13.359830856323242
v -2.6756932735443115 -6.699998378753662 13.243301391601562
v -2.678309917449951 -6.715872287750244 13.1581449508667
v -0.5037409067153931 -6.778308868408203 15.071916580200195
v 0.0013034399598836899 -7.152929306030273 13.261228561401367
v 0.0013034399598836899 -6.778308868408203 15.071916580200195
v 0.5037309527397156 -6.778308868408203 15.071916580200195
v 1.382979154586792 -7.072502613067627 13.261228561401367
v 1.364661455154419 -6.716930389404297 15.071916580200195
v 2.2805449962615967 -6.901065826416016 13.382240295410156
v 2.2517600059509277 -6.57724142074585 15.067434310913086
v 2.678300142288208 -6.715872287750244 13.1581449508667
v 2.536992311477661 -6.855561256408691 13.122289657592773
v 2.6756832599639893 -6.699998378753662 13.243301391601562
v 2.5343754291534424 -6.808998107910156 13.359830856323242
v 2.288395404815674 -6.946570873260498 13.140217781066895
v 1.4012967348098755 -7.42384147644043 11.46846866607666
v 2.3171803951263428 -7.2682785987854 11.47295093536377
v 2.3276474475860596 -7.6757049560546875 8.994460105895996
v 1.4143807888031006 -7.965665340423584 8.003959655761719
v 2.322413921356201 -7.819626808166504 8.003959655761719
v -2.2491531372070312 -6.448134899139404 15.045024871826172
v -2.25177001953125 -6.57724142074585 15.067434310913086
v -2.2491531372070312 -6.467183589935303 14.937458992004395
v -2.28055477142334 -6.901065826416016 13.382240295410156
v -2.262237310409546 -6.610047340393066 13.310529708862305
v -2.2465362548828125 -6.340193271636963 14.91504955291748
v -2.3224239349365234 -7.819626808166504 8.003959655761719
v -2.3014893531799316 -7.531783103942871 8.003959655761719
v -1.4143908023834229 -7.965665340423584 8.003959655761719
v 0.0013034399598836899 -7.531783103942871 8.003959655761719
v 0.0013034399598836899 -8.077839851379395 8.003959655761719
v 1.4143807888031006 -7.965665340423584 8.003959655761719
v 2.3014793395996094 -7.531783103942871 8.003959655761719
v 2.322413921356201 -7.819626808166504 8.003959655761719
v -2.3224239349365234 -7.819626808166504 8.003959655761719
v -2.3014893531799316 -7.531783103942871 8.003959655761719
v -2.327657461166382 -7.6757049560546875 8.994460105895996
v -2.309339761734009 -7.3518805503845215 8.989977836608887
v -2.317190170288086 -7.2682785987854 11.47295093536377
v -2.2857885360717773 -6.9232892990112305 11.47295093536377
v -2.288405418395996 -6.946570873260498 13.140217781066895
v -2.2674708366394043 -6.650260925292969 13.068507194519043
v -0.5089744925498962 -6.902124404907227 14.426522254943848
v -0.5011240839958191 -6.768784523010254 15.027097702026367
v -0.5089744925498962 -6.93281364440918 14.489269256591797
v -0.5011240839958191 -6.816405773162842 15.03606128692627
v -0.48018959164619446 -6.81111478805542 15.058470726013184
v -0.48018959164619446 -6.836512565612793 15.040542602539062
v 0.48017966747283936 -6.81111478805542 15.058470726013184
v -0.48018959164619446 -6.763493537902832 15.049507141113281
v 0.48017966747283936 -6.763493537902832 15.049507141113281
v 0.5011141300201416 -6.768784523010254 15.027097702026367
v 0.5011141300201416 -6.816405773162842 15.03606128692627
v 0.5089645981788635 -6.93281364440918 14.489269256591797
v 0.5089645981788635 -6.902124404907227 14.426522254943848
v 0.48017966747283936 -6.836512565612793 15.040542602539062
v 0.4880301058292389 -6.953978538513184 14.489269256591797
v 0.5089645981788635 -6.93281364440918 14.489269256591797
v 0.4880301058292389 -6.938104629516602 14.466859817504883
v 0.5089645981788635 -6.902124404907227 14.426522254943848
v 0.4880301058292389 -6.907415390014648 14.404112815856934
v -0.488040030002594 -6.938104629516602 14.466859817504883
v -0.488040030002594 -6.907415390014648 14.404112815856934
v -0.5089744925498962 -6.902124404907227 14.426522254943848
v -0.5089744925498962 -6.93281364440918 14.489269256591797
v -0.488040030002594 -6.953978538513184 14.489269256591797
v -2.6364409923553467 -6.637561798095703 13.144699096679688
v -2.5553200244903564 -6.647086143493652 13.086434364318848
v -2.6364409923553467 -6.623804569244385 13.22985553741455
v -2.550086259841919 -6.611105442047119 13.306047439575195
v -2.2857885360717773 -6.648144245147705 13.077470779418945
v -2.2831716537475586 -6.610047340393066 13.310529708862305
v -2.262237310409546 -6.610047340393066 13.310529708862305
v -2.2674708366394043 -6.650260925292969 13.068507194519043
v -2.2674708366394043 -6.650260925292969 13.068507194519043
v -2.2857885360717773 -6.648144245147705 13.077470779418945
v -2.288405418395996 -6.946570873260498 13.140217781066895
v -2.5370023250579834 -6.855561256408691 13.122289657592773
v -2.5553200244903564 -6.647086143493652 13.086434364318848
v -2.678309917449951 -6.715872287750244 13.1581449508667
v -2.6364409923553467 -6.637561798095703 13.144699096679688
v -2.678309917449951 -6.715872287750244 13.1581449508667
v -2.6364409923553467 -6.637561798095703 13.144699096679688
v -2.6756932735443115 -6.699998378753662 13.243301391601562
v -2.6364409923553467 -6.623804569244385 13.22985553741455
v -2.550086259841919 -6.611105442047119 13.306047439575195
v -2.6756932735443115 -6.699998378753662 13.243301391601562
v -2.5343854427337646 -6.808998107910156 13.359830856323242
v -2.2831716537475586 -6.610047340393066 13.310529708862305
v -2.28055477142334 -6.901065826416016 13.382240295410156
v -2.262237310409546 -6.610047340393066 13.310529708862305
v 0.0013034399598836899 -6.778308868408203 15.071916580200195
v -0.5037409067153931 -6.778308868408203 15.071916580200195
v 0.0013034399598836899 -6.57724142074585 15.067434310913086
v -1.3646713495254517 -6.716930389404297 15.071916580200195
v -2.25177001953125 -6.57724142074585 15.067434310913086
v 0.0013034399598836899 -6.448134899139404 15.045024871826172
v -2.2491531372070312 -6.448134899139404 15.045024871826172
v 0.5037309527397156 -6.778308868408203 15.071916580200195
v 1.364661455154419 -6.716930389404297 15.071916580200195
v 2.2517600059509277 -6.57724142074585 15.067434310913086
v 2.249143123626709 -6.448134899139404 15.045024871826172
v -2.2465362548828125 -6.340193271636963 14.91504955291748
v 0.0013034399598836899 -6.340193271636963 14.91504955291748
v -2.2491531372070312 -6.467183589935303 14.937458992004395
v 0.0013034399598836899 -6.467183589935303 14.937458992004395
v 2.249143123626709 -6.467183589935303 14.937458992004395
v 2.2465264797210693 -6.340193271636963 14.91504955291748
v 2.249143123626709 -6.448134899139404 15.045024871826172
v 2.249143123626709 -6.467183589935303 14.937458992004395
v 2.2517600059509277 -6.57724142074585 15.067434310913086
v 2.2805449962615967 -6.901065826416016 13.382240295410156
v 2.2622272968292236 -6.610047340393066 13.310529708862305
v 2.2465264797210693 -6.340193271636963 14.91504955291748
v 2.322413921356201 -7.819626808166504 8.003959655761719
v 2.3276474475860596 -7.6757049560546875 8.994460105895996
v 2.3014793395996094 -7.531783103942871 8.003959655761719
v 2.3093297481536865 -7.3518805503845215 8.989977836608887
v 2.3171803951263428 -7.2682785987854 11.47295093536377
v 2.285778522491455 -6.9232892990112305 11.47295093536377
v 2.288395404815674 -6.946570873260498 13.140217781066895
v 2.267460823059082 -6.650260925292969 13.068507194519043
v 2.6364312171936035 -6.637561798095703 13.144699096679688
v 2.555310010910034 -6.647086143493652 13.086434364318848
v 2.6364312171936035 -6.623804569244385 13.22985553741455
v 2.550076484680176 -6.611105442047119 13.306047439575195
v 2.285778522491455 -6.648144245147705 13.077470779418945
v 2.2831618785858154 -6.610047340393066 13.310529708862305
v 2.2622272968292236 -6.610047340393066 13.310529708862305
v 2.267460823059082 -6.650260925292969 13.068507194519043
v 2.6364312171936035 -6.637561798095703 13.144699096679688
v 2.678300142288208 -6.715872287750244 13.1581449508667
v 2.555310010910034 -6.647086143493652 13.086434364318848
v 2.536992311477661 -6.855561256408691 13.122289657592773
v 2.285778522491455 -6.648144245147705 13.077470779418945
v 2.288395404815674 -6.946570873260498 13.140217781066895
v 2.267460823059082 -6.650260925292969 13.068507194519043
v 2.6364312171936035 -6.623804569244385 13.22985553741455
v 2.6364312171936035 -6.637561798095703 13.144699096679688
v 2.6756832599639893 -6.699998378753662 13.243301391601562
v 2.678300142288208 -6.715872287750244 13.1581449508667
v 2.6364312171936035 -6.623804569244385 13.22985553741455
v 2.6756832599639893 -6.699998378753662 13.243301391601562
v 2.550076484680176 -6.611105442047119 13.306047439575195
v 2.5343754291534424 -6.808998107910156 13.359830856323242
v 2.2831618785858154 -6.610047340393066 13.310529708862305
v 2.2805449962615967 -6.901065826416016 13.382240295410156
v 2.2622272968292236 -6.610047340393066 13.310529708862305
v -2.2491531372070312 -6.467183589935303 14.937458992004395
v -2.2491531372070312 -6.448134899139404 15.045024871826172
v 0.0013034399598836899 -6.467183589935303 14.937458992004395
v 0.0013034399598836899 -6.448134899139404 15.045024871826172
v 2.249143123626709 -6.467183589935303 14.937458992004395
v 2.249143123626709 -6.448134899139404 15.045024871826172
v -2.215134620666504 -6.4576592445373535 14.937458992004395
v 0.003920250106602907 -6.4576592445373535 14.937458992004395
v -2.215134620666504 -6.434377670288086 15.296010971069336
v 0.003920250106602907 -6.434377670288086 15.296010971069336
v 0.003920250106602907 -6.269290924072266 16.04897117614746
v 2.2177414894104004 -6.434377670288086 15.296010971069336
v 2.2177414894104004 -6.269290924072266 16.04897117614746
v 0.003920250106602907 -6.098912715911865 16.792966842651367
v -2.2177515029907227 -6.269290924072266 16.04897117614746
v -2.2177515029907227 -6.098912715911865 16.792966842651367
v -2.2177515029907227 -5.938058376312256 17.178409576416016
v 0.003920250106602907 -5.938058376312256 17.178409576416016
v 2.2177414894104004 -6.098912715911865 16.792966842651367
v 2.2177414894104004 -5.938058376312256 17.178409576416016
v 2.2177414894104004 -6.4576592445373535 14.937458992004395
v -2.215134620666504 -6.347601413726807 14.910568237304688
v -2.215134620666504 -6.276698589324951 15.237746238708496
v -2.215134620666504 -6.4576592445373535 14.937458992004395
v -2.215134620666504 -6.434377670288086 15.296010971069336
v -2.2177515029907227 -6.109495162963867 15.999670028686523
v -2.2177515029907227 -6.269290924072266 16.04897117614746
v -2.215134620666504 -5.943349838256836 16.766075134277344
v -2.2177515029907227 -6.098912715911865 16.792966842651367
v -2.2177515029907227 -5.931708812713623 17.173927307128906
v -2.2177515029907227 -5.938058376312256 17.178409576416016
v -2.2177515029907227 -5.911602020263672 17.169445037841797
v 2.2177414894104004 -5.938058376312256 17.178409576416016
v 2.2177414894104004 -5.931708812713623 17.173927307128906
v 2.2177414894104004 -6.098912715911865 16.792966842651367
v 2.2177414894104004 -5.943349838256836 16.766075134277344
v 2.2177414894104004 -6.269290924072266 16.04897117614746
v 2.2177414894104004 -6.109495162963867 15.999670028686523
v 2.2177414894104004 -6.434377670288086 15.296010971069336
v 2.2177414894104004 -6.276698589324951 15.237746238708496
v 2.2177414894104004 -6.4576592445373535 14.937458992004395
v 2.2177414894104004 -6.347601413726807 14.910568237304688
v 2.2177414894104004 -5.911602020263672 17.169445037841797
vt 0.018607869744300842 0.9965620040893555
vt 0.05539361387491226 0.9965620040893555
vt 0.018728477880358696 0.9567434787750244
vt 0.05563483014702797 0.957107663154602
vt 0.05635848641395569 0.8561045527458191
vt 0.11232106387615204 0.957107663154602
vt 0.11256227642297745 0.8562259674072266
vt 0.11232106387615204 0.9965620040893555
vt 0.1690072864294052 0.957107663154602
vt 0.019090304151177406 0.8558617234230042
vt 0.02029639482498169 0.7869076728820801
vt 0.05708213895559311 0.7831443548202515
vt 0.020537612959742546 0.7770744562149048
vt 0.05792640149593353 0.7090915441513062
vt 0.021864311769604683 0.7082417607307434
vt 0.009441585280001163 0.7869076728820801
vt 0.009562194347381592 0.7770744562149048
vt 0.0017226090421900153 0.7808377742767334
vt 0.001601999974809587 0.7843583226203918
vt 0.09254118800163269 0.7095771431922913
vt 0.11268288642168045 0.7837513089179993
vt 0.11280349642038345 0.7095771431922913
vt 0.13318641483783722 0.7095771431922913
vt 0.1684042513370514 0.7832657694816589
vt 0.16792181134223938 0.7092129588127136
vt 0.20518998801708221 0.777317225933075
vt 0.20386329293251038 0.7083631753921509
vt 0.22436682879924774 0.7847225069999695
vt 0.21640662848949432 0.7873932719230652
vt 0.22436682879924774 0.781201958656311
vt 0.21628601849079132 0.777317225933075
vt 0.20543120801448822 0.7872718572616577
vt 0.1687660813331604 0.8561045527458191
vt 0.20603425800800323 0.8559831380844116
vt 0.20591364800930023 0.957107663154602
vt 0.16912789642810822 0.9965620040893555
vt 0.20591364800930023 0.9965620040893555
vt 0.5036972761154175 0.5668131113052368
vt 0.5021293759346008 0.5702122449874878
vt 0.5051445960998535 0.5635353326797485
vt 0.5796809196472168 0.5702122449874878
vt 0.5796809196472168 0.5546733140945435
vt 0.5090040564537048 0.5547947287559509
vt 0.20277781784534454 0.6811700463294983
vt 0.20217476785182953 0.7019290924072266
vt 0.16406232118606567 0.6780136823654175
vt 0.10448147356510162 0.7024146914482117
vt 0.10448147356510162 0.6692730188369751
vt 0.04478002339601517 0.6780136823654175
vt 0.0069087957963347435 0.7021718621253967
vt 0.006064532790333033 0.6815342307090759
vt 0.6017524003982544 0.8168929815292358
vt 0.5988577604293823 0.7969837188720703
vt 0.5602628588676453 0.8171358108520508
vt 0.5584537386894226 0.801232635974884
vt 0.4566597640514374 0.816286027431488
vt 0.4544887840747833 0.803053617477417
vt 0.38670653104782104 0.8148292303085327
vt 0.38755080103874207 0.8005042672157288
vt 0.6846107840538025 0.520196259021759
vt 0.6844901442527771 0.5494531989097595
vt 0.6832840442657471 0.5228670239448547
vt 0.6828016042709351 0.5486034154891968
vt 0.6820780038833618 0.5494531989097595
vt 0.6819573640823364 0.5483605861663818
vt 0.638055682182312 0.5494531989097595
vt 0.6826810240745544 0.551152765750885
vt 0.637332022190094 0.551152765750885
vt 0.6355229020118713 0.5494531989097595
vt 0.6372114419937134 0.5486034154891968
vt 0.636849582195282 0.5228670239448547
vt 0.6354023218154907 0.520196259021759
vt 0.6381763219833374 0.5483605861663818
vt 0.637814462184906 0.5227456092834473
vt 0.636849582195282 0.5228670239448547
vt 0.6375732421875 0.5217744708061218
vt 0.6354023218154907 0.520196259021759
vt 0.637090802192688 0.5187395215034485
vt 0.6824398040771484 0.5217744708061218
vt 0.6830428242683411 0.5187395215034485
vt 0.6846107840538025 0.520196259021759
vt 0.6832840442657471 0.5228670239448547
vt 0.6823192238807678 0.5227456092834473
vt 0.521426796913147 0.4156726002693176
vt 0.5164818167686462 0.4207713007926941
vt 0.5213061571121216 0.41288045048713684
vt 0.5162405967712402 0.40790313482284546
vt 0.5010438561439514 0.42089271545410156
vt 0.5009232759475708 0.407781720161438
vt 0.49923473596572876 0.40681055188179016
vt 0.49959656596183777 0.4217424988746643
vt 0.49959656596183777 0.4217424988746643
vt 0.5010438561439514 0.42089271545410156
vt 0.5018881559371948 0.44201597571372986
vt 0.5162405967712402 0.4353390634059906
vt 0.5164818167686462 0.4207713007926941
vt 0.5244420170783997 0.42854079604148865
vt 0.5234771370887756 0.42028573155403137
vt 0.529507577419281 0.4174935817718506
vt 0.521426796913147 0.4156726002693176
vt 0.529507577419281 0.4125162363052368
vt 0.522391676902771 0.4103311002254486
vt 0.5162405967712402 0.40790313482284546
vt 0.5250450372695923 0.39976945519447327
vt 0.5157581567764282 0.3924855887889862
vt 0.5009232759475708 0.407781720161438
vt 0.5012850761413574 0.3866584897041321
vt 0.49923473596572876 0.40681055188179016
vt 0.3633083999156952 0.02792738564312458
vt 0.3856210708618164 0.02792738564312458
vt 0.3634290099143982 0.01894393377006054
vt 0.42349228262901306 0.025256630033254623
vt 0.46269020438194275 0.019065331667661667
vt 0.3634290099143982 0.015180596150457859
vt 0.46256959438323975 0.015423391945660114
vt 0.341116338968277 0.02792738564312458
vt 0.30324509739875793 0.025135232135653496
vt 0.26404717564582825 0.01894393377006054
vt 0.26416778564453125 0.015059198252856731
vt 0.46244898438453674 0.0024338059592992067
vt 0.3634290099143982 0.002312408061698079
vt 0.46256959438323975 0.01190285012125969
vt 0.3634290099143982 0.011295859701931477
vt 0.26416778564453125 0.010810268111526966
vt 0.26428839564323425 0.002191009931266308
vt 0.5036972761154175 0.5666916966438293
vt 0.5055063962936401 0.5628069639205933
vt 0.5022499561309814 0.5702122449874878
vt 0.5796809196472168 0.5702122449874878
vt 0.5796809196472168 0.5547947287559509
vt 0.5090040564537048 0.5547947287559509
vt 0.6015111804008484 0.8168929815292358
vt 0.5599010586738586 0.817378580570221
vt 0.5984959602355957 0.7969837188720703
vt 0.558091938495636 0.801475465297699
vt 0.45629793405532837 0.8164073824882507
vt 0.4542475640773773 0.8031750321388245
vt 0.38622409105300903 0.8147078156471252
vt 0.38743019104003906 0.8003828525543213
vt 0.521185576915741 0.4156726002693176
vt 0.5164818167686462 0.4207713007926941
vt 0.521185576915741 0.41288045048713684
vt 0.5162405967712402 0.40802451968193054
vt 0.5010438561439514 0.42101410031318665
vt 0.5009232759475708 0.40790313482284546
vt 0.49935534596443176 0.4070533514022827
vt 0.49959656596183777 0.4217424988746643
vt 0.5227534770965576 0.4205285310745239
vt 0.5245625972747803 0.4281765818595886
vt 0.5164818167686462 0.4207713007926941
vt 0.5159993767738342 0.4359460771083832
vt 0.5010438561439514 0.42101410031318665
vt 0.5020087361335754 0.4417731761932373
vt 0.49959656596183777 0.4217424988746643
vt 0.5220298171043396 0.4104524850845337
vt 0.521185576915741 0.4156726002693176
vt 0.529266357421875 0.4125162363052368
vt 0.529266357421875 0.4174935817718506
vt 0.5220298171043396 0.4104524850845337
vt 0.5250450372695923 0.40037643909454346
vt 0.5162405967712402 0.40802451968193054
vt 0.5156375765800476 0.3924855887889862
vt 0.5009232759475708 0.40790313482284546
vt 0.5011644959449768 0.38690125942230225
vt 0.49935534596443176 0.4070533514022827
vt 0.46256959438323975 0.01190285012125969
vt 0.46256959438323975 0.015423391945660114
vt 0.3634290099143982 0.011295859701931477
vt 0.3634290099143982 0.015180596150457859
vt 0.26416778564453125 0.010810268111526966
vt 0.26416778564453125 0.015059198252856731
vt 0.9893897175788879 0.1282021403312683
vt 0.8721577525138855 0.1282021403312683
vt 0.9893897175788879 0.10902124643325806
vt 0.8721577525138855 0.10902124643325806
vt 0.8721577525138855 0.06823152303695679
vt 0.9895102977752686 0.10902124643325806
vt 0.9895102977752686 0.06823152303695679
vt 0.8721577525138855 0.02950556017458439
vt 0.9893897175788879 0.06823152303695679
vt 0.9893897175788879 0.02950556017458439
vt 0.9893897175788879 0.010203277692198753
vt 0.8721577525138855 0.010203277692198753
vt 0.9895102977752686 0.02950556017458439
vt 0.9895102977752686 0.010203277692198753
vt 0.9895102977752686 0.1282021403312683
vt 0.3842943608760834 0.672914981842041
vt 0.4002147316932678 0.6731577515602112
vt 0.38634470105171204 0.6686660051345825
vt 0.4035918116569519 0.6634458899497986
vt 0.43784475326538086 0.6737647652626038
vt 0.44134241342544556 0.6623533368110657
vt 0.4754747748374939 0.6741289496421814
vt 0.47728389501571655 0.6667236685752869
vt 0.49489280581474304 0.6732791662216187
vt 0.49501341581344604 0.6724293828010559
vt 0.49465158581733704 0.6743717193603516
vt 0.49501341581344604 0.6724293828010559
vt 0.49489280581474304 0.6732791662216187
vt 0.47728389501571655 0.6667236685752869
vt 0.4754747748374939 0.6741289496421814
vt 0.44134241342544556 0.6623533368110657
vt 0.43784475326538086 0.6737647652626038
vt 0.4035918116569519 0.6634458899497986
vt 0.4002147316932678 0.6731577515602112
vt 0.38634470105171204 0.6686660051345825
vt 0.3842943608760834 0.672914981842041
vt 0.49465158581733704 0.6743717193603516
vn -0.15784130990505219 -0.9772695899009705 0.1415284425020218
vn -0.12427801638841629 -0.9801464676856995 0.15449213981628418
vn -0.14671944081783295 -0.9770392179489136 0.15449213981628418
vn -0.10177125036716461 -0.9827384352684021 0.15449213981628418
vn -0.11490498483181 -0.9776540398597717 0.1760382205247879
vn 0.003775994060561061 -0.9879868030548096 0.15449213981628418
vn -0.001886497950181365 -0.9836029410362244 0.18033768236637115
vn 0.0037733782082796097 -0.9873023629188538 0.15880759060382843
vn 0.10177125036716461 -0.9827384352684021 0.15449213981628418
vn -0.16721650958061218 -0.9700769186019897 0.1760382205247879
vn -0.20798248052597046 -0.9597135782241821 0.18892620503902435
vn -0.11115414649248123 -0.9756801128387451 0.18892620503902435
vn -0.23740234971046448 -0.952862560749054 0.18892620503902435
vn -0.12604020535945892 -0.9730271100997925 0.19321508705615997
vn -0.1560409963130951 -0.9695143699645996 0.18892620503902435
vn -0.520980715751648 -0.8369865417480469 0.16742929816246033
vn -0.520980715751648 -0.8369865417480469 0.16742929816246033
vn -0.677886426448822 -0.7205532789230347 0.1458524912595749
vn -0.6739728450775146 -0.7233315110206604 0.15017375349998474
vn -0.043373290449380875 -0.9801972508430481 0.19321508705615997
vn 3.0455924782991917e-13 -0.9803028106689453 0.1975002884864807
vn -0.0018877115799114108 -0.9794287085533142 0.2017817199230194
vn 0.03960384801030159 -0.9803568124771118 0.19321508705615997
vn 0.10740157216787338 -0.9761003255844116 0.18892620503902435
vn 0.1297808289527893 -0.972535252571106 0.19321508705615997
vn 0.23373658955097198 -0.9537683725357056 0.18892620503902435
vn 0.1523118019104004 -0.9701071977615356 0.18892620503902435
vn 0.6767290830612183 -0.7207534909248352 0.15017375349998474
vn 0.5241796970367432 -0.8349868655204773 0.16742929816246033
vn 0.677886426448822 -0.7205532789230347 0.1458524912595749
vn 0.5241796970367432 -0.8349868655204773 0.16742929816246033
vn 0.21167129278182983 -0.9589067697525024 0.18892620503902435
vn 0.1111539751291275 -0.9780876040458679 0.1760382205247879
vn 0.16349416971206665 -0.9707111716270447 0.1760382205247879
vn 0.14671944081783295 -0.9770392179489136 0.15449213981628418
vn 0.12427801638841629 -0.9801464676856995 0.15449213981628418
vn 0.15784130990505219 -0.9772695899009705 0.1415284425020218
vn -0.9999118447303772 0.007551383227109909 -0.010923261754214764
vn -0.9997409582138062 0.022653724998235703 0.002184694167226553
vn -0.9995414018630981 0.0302029550075531 0.002184694167226553
vn -0.99858158826828 0.05283758416771889 0.006554040592163801
vn -0.9989521503448486 0.045294955372810364 0.006554040592163801
vn -0.999721884727478 0.02265329100191593 0.006554040592163801
vn -2.0682311115474694e-13 0 -1
vn -2.0682311115474694e-13 0 -1
vn -2.0682311115474694e-13 0 -1
vn -2.0682311115474694e-13 0 -1
vn -2.0682311115474694e-13 0 -1
vn -2.0682311115474694e-13 0 -1
vn -2.0682311115474694e-13 0 -1
vn -2.0682311115474694e-13 0 -1
vn -0.9975744485855103 0.06790688633918762 -0.0152922747656703
vn -0.9980588555335999 0.060371436178684235 -0.0152922747656703
vn -0.9981160163879395 0.060374896973371506 -0.010923261754214764
vn -0.9976316094398499 0.06791078299283981 -0.010923261754214764
vn -0.9971474409103394 0.07544711232185364 -0.002184694167226553
vn -0.9965491890907288 0.08297525346279144 -0.002184694167226553
vn -0.9971474409103394 0.07544711232185364 0.002184694167226553
vn -0.9976887702941895 0.06791467219591141 0.002184694167226553
vn -0.9998263120651245 0.015102335251867771 0.010923261754214764
vn -0.9197443723678589 0.07541473954916 0.3852050006389618
vn -0.9999118447303772 0.007551383227109909 0.010923261754214764
vn -0.8477363586425781 -0.28892943263053894 0.44481781125068665
vn -0.4447515904903412 -0.12631261348724365 0.8867024183273315
vn -0.3239244520664215 -0.7968157529830933 0.5100564956665039
vn 0.3200948238372803 -0.15295551717281342 0.9349566102027893
vn -0.2513182461261749 0.17329668998718262 0.9522643685340881
vn 0.3797420859336853 0.16797471046447754 0.9097144603729248
vn 0.9197443723678589 0.07541473954916 0.3852050006389618
vn 0.8477363586425781 -0.28892943263053894 0.44481781125068665
vn 0.9999118447303772 0.007551383227109909 0.010923261754214764
vn 0.9998263120651245 0.015102335251867771 0.010923261754214764
vn 0.4526698589324951 -0.7589024305343628 0.46814218163490295
vn 0.2503160536289215 -0.9512203931808472 -0.18033768236637115
vn 0.6691731810569763 -0.7319047451019287 -0.12854042649269104
vn 0.35265442728996277 -0.8168384432792664 -0.456519216299057
vn 0.5502233505249023 -0.7470400333404541 -0.37307560443878174
vn 0.19288447499275208 -0.8765857219696045 -0.4409002661705017
vn -0.2515045404434204 -0.8449631333351135 -0.4719987213611603
vn -0.28414833545684814 -0.8574002385139465 -0.42909738421440125
vn -0.5502233505249023 -0.7470400333404541 -0.37307560443878174
vn -0.666381299495697 -0.7344476580619812 -0.12854042649269104
vn -0.370156466960907 -0.9121374487876892 -0.1760382205247879
vn -1.0195180610112972e-13 0.9858840703964233 -0.16742929816246033
vn -1.0195180610112972e-13 0.9858840703964233 -0.16742929816246033
vn -1.0195180610112972e-13 0.9858840703964233 -0.16742929816246033
vn -1.0195180610112972e-13 0.9858840703964233 -0.16742929816246033
vn -1.0195180610112972e-13 0.9858840703964233 -0.16742929816246033
vn -1.0195180610112972e-13 0.9858840703964233 -0.16742929816246033
vn -1.0195180610112972e-13 0.9858840703964233 -0.16742929816246033
vn -1.0195180610112972e-13 0.9858840703964233 -0.16742929816246033
vn -0.4760753810405731 -0.17775046825408936 -0.8612531423568726
vn -0.1720856875181198 -0.18810924887657166 -0.9669547080993652
vn -0.24449379742145538 -0.1963619738817215 -0.949560284614563
vn -0.14634445309638977 -0.19305220246315002 -0.9702134728431702
vn -0.3475245237350464 -0.07129368931055069 -0.9349566102027893
vn -0.49281513690948486 -0.015109359286725521 -0.8700028657913208
vn -0.558812141418457 0.16049906611442566 -0.8136147856712341
vn -0.8863779306411743 0.45798957347869873 -0.06767380982637405
vn -0.8898195028305054 0.4512665271759033 -0.06767380982637405
vn -0.8898195028305054 0.4512665271759033 -0.06767380982637405
vn -0.8164528608322144 0.4888129234313965 0.30735430121421814
vn -0.41235125064849854 0.3219515085220337 0.8522403836250305
vn -0.5820165276527405 0.33167243003845215 0.7424622178077698
vn -0.1899152547121048 0.23900793492794037 0.9522643685340881
vn -0.033725425601005554 0.2441704273223877 0.9691457152366638
vn -0.04666376858949661 0.23339086771011353 0.9712626934051514
vn -0.09159857779741287 0.23338936269283295 0.9680594801902771
vn -2.259048305272007e-15 0.021845221519470215 0.9997613430023193
vn -1.8072902708757407e-15 0.017476677894592285 0.9998472929000854
vn -0.0018595322035253048 0.0698285773396492 0.9975572824478149
vn -2.259048305272007e-15 0.021845221519470215 0.9997613430023193
vn -0.0018610621336847544 0.122023805975914 0.9925254583358765
vn -0.001867682789452374 0.16526448726654053 0.9862475395202637
vn -0.001867682789452374 0.16526448726654053 0.9862475395202637
vn -1.8072902708757407e-15 0.017476677894592285 0.9998472929000854
vn -2.259048305272007e-15 0.021845221519470215 0.9997613430023193
vn 0.0018539319280534983 0.10030980408191681 0.994954526424408
vn -0.001867682789452374 0.16526448726654053 0.9862475395202637
vn -0.001867682789452374 0.16526448726654053 0.9862475395202637
vn -0.001867682789452374 0.16526448726654053 0.9862475395202637
vn -0.001867682789452374 0.16526448726654053 0.9862475395202637
vn -0.001867682789452374 0.16526448726654053 0.9862475395202637
vn -0.001867682789452374 0.16526448726654053 0.9862475395202637
vn -0.001867682789452374 0.16526448726654053 0.9862475395202637
vn 0.9999118447303772 0.007551383227109909 -0.010923261754214764
vn 0.9995414018630981 0.0302029550075531 0.002184694167226553
vn 0.9997409582138062 0.022653724998235703 -0.002184694167226553
vn 0.99858158826828 0.05283758416771889 0.006554040592163801
vn 0.9989521503448486 0.045294955372810364 0.006554040592163801
vn 0.999721884727478 0.02265329100191593 0.006554040592163801
vn 0.9975744485855103 0.06790688633918762 -0.0152922747656703
vn 0.9981160163879395 0.060374896973371506 -0.010923261754214764
vn 0.9980588555335999 0.060371436178684235 -0.0152922747656703
vn 0.9976316094398499 0.06791078299283981 -0.010923261754214764
vn 0.9971474409103394 0.07544711232185364 -0.002184694167226553
vn 0.9965491890907288 0.08297525346279144 -0.002184694167226553
vn 0.9971474409103394 0.07544711232185364 0.002184694167226553
vn 0.9976887702941895 0.06791467219591141 0.002184694167226553
vn -1.0195180610112972e-13 0.9858840703964233 -0.16742929816246033
vn -1.0195180610112972e-13 0.9858840703964233 -0.16742929816246033
vn -1.0195180610112972e-13 0.9858840703964233 -0.16742929816246033
vn -1.0195180610112972e-13 0.9858840703964233 -0.16742929816246033
vn -1.0195180610112972e-13 0.9858840703964233 -0.16742929816246033
vn -1.0195180610112972e-13 0.9858840703964233 -0.16742929816246033
vn -1.0195180610112972e-13 0.9858840703964233 -0.16742929816246033
vn -1.0195180610112972e-13 0.9858840703964233 -0.16742929816246033
vn 0.5598442554473877 0.15686100721359253 -0.8136147856712341
vn 0.49281513690948486 -0.015109359286725521 -0.8700028657913208
vn 0.3467456102371216 -0.07499052584171295 -0.9349566102027893
vn 0.1493438333272934 -0.1907413750886917 -0.9702134728431702
vn 0.1720856875181198 -0.18810924887657166 -0.9669547080993652
vn 0.24449379742145538 -0.1963619738817215 -0.949560284614563
vn 0.4760753810405731 -0.17775046825408936 -0.8612531423568726
vn 0.8164528608322144 0.4888129234313965 0.30735430121421814
vn 0.8898195028305054 0.4512665271759033 -0.06767380982637405
vn 0.8898195028305054 0.4512665271759033 -0.06767380982637405
vn 0.8863779306411743 0.45798957347869873 -0.06767380982637405
vn 0.8164528608322144 0.4888129234313965 0.30735430121421814
vn 0.5820165276527405 0.33167243003845215 0.7424622178077698
vn 0.41235125064849854 0.3219515085220337 0.8522403836250305
vn 0.18695634603500366 0.24132949113845825 0.9522643685340881
vn 0.033725425601005554 0.2441704273223877 0.9691457152366638
vn 0.0429735891520977 0.234098419547081 0.9712626934051514
vn 0.09159857779741287 0.23338936269283295 0.9680594801902771
vn 0.0018876449903473258 0.9866044521331787 -0.16312000155448914
vn 0.0018876449903473258 0.9866044521331787 -0.16312000155448914
vn 0.0018876449903473258 0.9866044521331787 -0.16312000155448914
vn 0.0018876449903473258 0.9866044521331787 -0.16312000155448914
vn 0.0018876449903473258 0.9866044521331787 -0.16312000155448914
vn 0.0018876449903473258 0.9866044521331787 -0.16312000155448914
vn 0.003776365192607045 -0.9977003335952759 0.06767380982637405
vn 0.003776365192607045 -0.9977003335952759 0.06767380982637405
vn 3.066722765489305e-13 -0.9899342060089111 0.1415284425020218
vn 0.003773920238018036 -0.9922492504119873 0.1242060661315918
vn 3.022795230268882e-13 -0.97575443983078 0.21886809170246124
vn 0.0018876449903473258 -0.9866044521331787 0.16312000155448914
vn 3.022795230268882e-13 -0.97575443983078 0.21886809170246124
vn 2.9686664368075433e-13 -0.9555421471595764 0.2948545813560486
vn 3.022795230268882e-13 -0.97575443983078 0.21886809170246124
vn 2.9479519411505783e-13 -0.95159512758255 0.30735430121421814
vn 2.8588435329983397e-13 -0.9228310585021973 0.3852050006389618
vn 2.8588435329983397e-13 -0.9228310585021973 0.3852050006389618
vn 0.0018873782828450203 -0.9432094693183899 0.33219319581985474
vn 2.8588435329983397e-13 -0.9228310585021973 0.3852050006389618
vn 0.003776365192607045 -0.9977003335952759 0.06767380982637405
vn -0.999997615814209 -2.0682260971124217e-13 -0.002184694167226553
vn -0.999997615814209 -2.0682260971124217e-13 -0.002184694167226553
vn -0.999997615814209 -2.0682260971124217e-13 -0.002184694167226553
vn -0.999997615814209 -2.0682260971124217e-13 -0.002184694167226553
vn -0.999997615814209 -2.0682260971124217e-13 -0.002184694167226553
vn -0.999997615814209 -2.0682260971124217e-13 -0.002184694167226553
vn -0.999997615814209 -2.0682260971124217e-13 -0.002184694167226553
vn -0.999997615814209 -2.0682260971124217e-13 -0.002184694167226553
vn -0.999997615814209 -2.0682260971124217e-13 -0.002184694167226553
vn -0.999997615814209 -2.0682260971124217e-13 -0.002184694167226553
vn -0.9999691247940063 0.007551815826445818 -0.002184694167226553
vn 0.999997615814209 0 -0.002184694167226553
vn 0.9999691247940063 0.007551815826445818 -0.002184694167226553
vn 0.999997615814209 0 -0.002184694167226553
vn 0.999997615814209 0 -0.002184694167226553
vn 0.999997615814209 0 -0.002184694167226553
vn 0.999997615814209 0 -0.002184694167226553
vn 0.999997615814209 0 -0.002184694167226553
vn 0.999997615814209 0 -0.002184694167226553
vn 0.999997615814209 0 -0.002184694167226553
vn 0.999997615814209 0 -0.002184694167226553
vn 0.9999691247940063 0.007551815826445818 -0.002184694167226553
f 1/1/1 2/2/2 3/3/3
f 2/2/2 4/4/4 3/3/3
f 3/3/3 4/4/4 5/5/5
f 4/4/4 4/4/4 5/5/5
f 5/5/5 4/4/4 6/6/6
f 4/4/4 7/7/7 6/6/6
f 6/6/6 7/7/7 8/8/8
f 7/7/7 9/9/9 8/8/8
f 8/8/8 9/9/9 10/10/10
f 9/9/9 9/9/9 10/10/10
f 10/10/10 9/9/9 11/11/11
f 9/9/9 9/9/9 11/11/11
f 11/11/11 9/9/9 12/12/12
f 9/9/9 9/9/9 12/12/12
f 12/12/12 9/9/9 13/13/13
f 9/9/9 7/7/7 13/13/13
f 13/13/13 7/7/7 14/14/14
f 7/7/7 4/4/4 14/14/14
f 14/14/14 4/4/4 2/2/2
f 4/4/4 2/2/2 2/2/2
f 2/2/2 2/2/2 1/1/1
f 2/2/2 1/1/1 1/1/1
f 1/1/1 1/1/1 15/15/15
f 1/1/1 3/3/3 15/15/15
f 15/15/15 3/3/3 16/16/16
f 3/3/3 3/3/3 16/16/16
f 16/16/16 3/3/3 17/17/17
f 3/3/3 3/3/3 17/17/17
f 17/17/17 3/3/3 18/18/18
f 3/3/3 5/5/5 18/18/18
f 18/18/18 5/5/5 5/5/5
f 5/5/5 19/19/19 5/5/5
f 5/5/5 19/19/19 19/19/19
f 19/19/19 20/20/20 19/19/19
f 19/19/19 20/20/20 21/21/21
f 20/20/20 22/22/22 21/21/21
f 21/21/21 22/22/22 21/21/21
f 22/22/22 23/23/23 21/21/21
f 21/21/21 23/23/23 24/24/24
f 23/23/23 24/24/24 24/24/24
f 24/24/24 24/24/24 25/25/25
f 24/24/24 25/25/25 25/25/25
f 25/25/25 25/25/25 26/26/26
f 25/25/25 27/27/27 26/26/26
f 26/26/26 27/27/27 28/28/28
f 27/27/27 29/29/29 28/28/28
f 28/28/28 29/29/29 29/29/29
f 29/29/29 28/28/28 29/29/29
f 29/29/29 28/28/28 28/28/28
f 28/28/28 30/30/30 28/28/28
f 28/28/28 30/30/30 26/26/26
f 30/30/30 30/30/30 26/26/26
f 26/26/26 30/30/30 31/31/31
f 30/30/30 32/32/32 31/31/31
f 31/31/31 32/32/32 32/32/32
f 32/32/32 33/33/33 32/32/32
f 32/32/32 33/33/33 33/33/33
f 33/33/33 34/34/34 33/33/33
f 33/33/33 34/34/34 35/35/35
f 34/34/34 36/36/36 35/35/35
f 35/35/35 36/36/36 35/35/35
f 36/36/36 37/37/37 35/35/35
f 35/35/35 37/37/37 35/35/35
f 37/37/37 38/38/38 35/35/35
f 35/35/35 38/38/38 39/39/39
f 38/38/38 40/40/40 39/39/39
f 39/39/39 40/40/40 41/41/41
f 40/40/40 42/42/42 41/41/41
f 41/41/41 42/42/42 43/43/43
f 42/42/42 44/44/44 43/43/43
f 43/43/43 44/44/44 44/44/44
f 44/44/44 33/33/33 44/44/44
f 44/44/44 33/33/33 33/33/33
f 33/33/33 35/35/35 33/33/33
f 33/33/33 35/35/35 45/45/45
f 35/35/35 35/35/35 45/45/45
f 45/45/45 35/35/35 46/46/46
f 35/35/35 39/39/39 46/46/46
f 46/46/46 39/39/39 43/43/43
f 39/39/39 41/41/41 43/43/43
f 43/43/43 41/41/41 41/41/41
f 41/41/41 40/40/40 41/41/41
f 41/41/41 40/40/40 40/40/40
f 40/40/40 47/47/47 40/40/40
f 40/40/40 47/47/47 42/42/42
f 48/48/48 49/49/49 50/50/50
f 49/49/49 51/51/51 50/50/50
f 50/50/50 51/51/51 52/52/52
f 51/51/51 53/53/53 52/52/52
f 52/52/52 53/53/53 54/54/54
f 53/53/53 54/54/54 54/54/54
f 54/54/54 54/54/54 49/49/49
f 54/54/54 49/49/49 49/49/49
f 49/49/49 49/49/49 51/51/51
f 49/49/49 55/55/55 51/51/51
f 51/51/51 55/55/55 53/53/53
f 55/55/55 56/56/56 53/53/53
f 53/53/53 56/56/56 56/56/56
f 56/56/56 50/50/50 56/56/56
f 56/56/56 50/50/50 50/50/50
f 50/50/50 52/52/52 50/50/50
f 50/50/50 52/52/52 57/57/57
f 52/52/52 52/52/52 57/57/57
f 57/57/57 52/52/52 58/58/58
f 52/52/52 59/59/59 58/58/58
f 58/58/58 59/59/59 60/60/60
f 59/59/59 61/61/61 60/60/60
f 60/60/60 61/61/61 62/62/62
f 61/61/61 62/62/62 62/62/62
f 62/62/62 62/62/62 58/58/58
f 62/62/62 58/58/58 58/58/58
f 58/58/58 58/58/58 63/63/63
f 58/58/58 60/60/60 63/63/63
f 63/63/63 60/60/60 63/63/63
f 60/60/60 64/64/64 63/63/63
f 63/63/63 64/64/64 63/63/63
f 64/64/64 65/65/65 63/63/63
f 63/63/63 65/65/65 66/66/66
f 65/65/65 66/66/66 66/66/66
f 66/66/66 66/66/66 61/61/61
f 66/66/66 61/61/61 61/61/61
f 61/61/61 61/61/61 67/67/67
f 61/61/61 59/59/59 67/67/67
f 67/67/67 59/59/59 68/68/68
f 59/59/59 52/52/52 68/68/68
f 68/68/68 52/52/52 52/52/52
f 52/52/52 67/67/67 52/52/52
f 52/52/52 67/67/67 67/67/67
f 67/67/67 68/68/68 67/67/67
f 67/67/67 68/68/68 69/69/69
f 68/68/68 68/68/68 69/69/69
f 69/69/69 68/68/68 70/70/70
f 68/68/68 71/71/71 70/70/70
f 70/70/70 71/71/71 72/72/72
f 71/71/71 73/73/73 72/72/72
f 72/72/72 73/73/73 74/74/74
f 73/73/73 74/74/74 74/74/74
f 74/74/74 74/74/74 75/75/75
f 74/74/74 75/75/75 75/75/75
f 75/75/75 75/75/75 76/76/76
f 75/75/75 77/77/77 76/76/76
f 76/76/76 77/77/77 76/76/76
f 77/77/77 78/78/78 76/76/76
f 76/76/76 78/78/78 76/76/76
f 78/78/78 73/73/73 76/76/76
f 76/76/76 73/73/73 79/79/79
f 73/73/73 71/71/71 79/79/79
f 79/79/79 71/71/71 80/80/80
f 71/71/71 68/68/68 80/80/80
f 80/80/80 68/68/68 54/54/54
f 68/68/68 52/52/52 54/54/54
f 54/54/54 52/52/52 52/52/52
f 52/52/52 79/79/79 52/52/52
f 52/52/52 79/79/79 79/79/79
f 79/79/79 80/80/80 79/79/79
f 79/79/79 80/80/80 81/81/81
f 80/80/80 80/80/80 81/81/81
f 81/81/81 80/80/80 82/82/82
f 80/80/80 56/56/56 82/82/82
f 82/82/82 56/56/56 83/83/83
f 56/56/56 55/55/55 83/83/83
f 83/83/83 55/55/55 55/55/55
f 55/55/55 56/56/56 55/55/55
f 55/55/55 56/56/56 56/56/56
f 56/56/56 80/80/80 56/56/56
f 56/56/56 80/80/80 53/53/53
f 80/80/80 54/54/54 53/53/53
f 53/53/53 54/54/54 54/54/54
f 54/54/54 83/83/83 54/54/54
f 54/54/54 83/83/83 83/83/83
f 83/83/83 84/84/84 83/83/83
f 83/83/83 84/84/84 82/82/82
f 84/84/84 82/82/82 82/82/82
f 82/82/82 82/82/82 85/85/85
f 82/82/82 85/85/85 85/85/85
f 85/85/85 85/85/85 86/86/86
f 85/85/85 87/87/87 86/86/86
f 86/86/86 87/87/87 88/88/88
f 87/87/87 87/87/87 88/88/88
f 88/88/88 87/87/87 89/89/89
f 87/87/87 90/90/90 89/89/89
f 89/89/89 90/90/90 90/90/90
f 90/90/90 91/91/91 90/90/90
f 90/90/90 91/91/91 91/91/91
f 91/91/91 92/92/92 91/91/91
f 91/91/91 92/92/92 93/93/93
f 92/92/92 94/94/94 93/93/93
f 93/93/93 94/94/94 95/95/95
f 94/94/94 94/94/94 95/95/95
f 95/95/95 94/94/94 96/96/96
f 94/94/94 97/97/97 96/96/96
f 96/96/96 97/97/97 98/98/98
f 97/97/97 98/98/98 98/98/98
f 98/98/98 98/98/98 99/99/99
f 98/98/98 99/99/99 99/99/99
f 99/99/99 99/99/99 100/100/100
f 99/99/99 101/101/101 100/100/100
f 100/100/100 101/101/101 102/102/102
f 101/101/101 103/103/103 102/102/102
f 102/102/102 103/103/103 104/104/104
f 103/103/103 105/105/105 104/104/104
f 104/104/104 105/105/105 106/106/106
f 105/105/105 106/106/106 106/106/106
f 106/106/106 106/106/106 107/107/107
f 106/106/106 107/107/107 107/107/107
f 107/107/107 107/107/107 108/108/108
f 107/107/107 109/109/109 108/108/108
f 108/108/108 109/109/109 108/108/108
f 109/109/109 110/110/110 108/108/108
f 108/108/108 110/110/110 111/111/111
f 110/110/110 112/112/112 111/111/111
f 111/111/111 112/112/112 111/111/111
f 112/112/112 113/113/113 111/111/111
f 111/111/111 113/113/113 114/114/114
f 113/113/113 113/113/113 114/114/114
f 114/114/114 113/113/113 115/115/115
f 113/113/113 113/113/113 115/115/115
f 115/115/115 113/113/113 116/116/116
f 113/113/113 117/117/117 116/116/116
f 116/116/116 117/117/117 116/116/116
f 117/117/117 118/118/118 116/116/116
f 116/116/116 118/118/118 119/119/119
f 118/118/118 119/119/119 119/119/119
f 119/119/119 119/119/119 111/111/111
f 119/119/119 111/111/111 111/111/111
f 111/111/111 111/111/111 108/108/108
f 111/111/111 114/114/114 108/108/108
f 108/108/108 114/114/114 114/114/114
f 114/114/114 117/117/117 114/114/114
f 114/114/114 117/117/117 117/117/117
f 117/117/117 113/113/113 117/117/117
f 117/117/117 113/113/113 120/120/120
f 113/113/113 112/112/112 120/120/120
f 120/120/120 112/112/112 120/120/120
f 112/112/112 121/121/121 120/120/120
f 120/120/120 121/121/121 122/122/122
f 121/121/121 123/123/123 122/122/122
f 122/122/122 123/123/123 124/124/124
f 123/123/123 123/123/123 124/124/124
f 124/124/124 123/123/123 125/125/125
f 123/123/123 126/126/126 125/125/125
f 125/125/125 126/126/126 127/127/127
f 126/126/126 126/126/126 127/127/127
f 127/127/127 126/126/126 128/128/128
f 126/126/126 126/126/126 128/128/128
f 128/128/128 126/126/126 129/129/129
f 126/126/126 130/130/130 129/129/129
f 129/129/129 130/130/130 112/112/112
f 130/130/130 130/130/130 112/112/112
f 112/112/112 130/130/130 121/121/121
f 130/130/130 126/126/126 121/121/121
f 121/121/121 126/126/126 123/123/123
f 126/126/126 123/123/123 123/123/123
f 123/123/123 123/123/123 122/122/122
f 123/123/123 122/122/122 122/122/122
f 122/122/122 122/122/122 120/120/120
f 122/122/122 117/117/117 120/120/120
f 120/120/120 117/117/117 117/117/117
f 117/117/117 112/112/112 117/117/117
f 117/117/117 112/112/112 112/112/112
f 112/112/112 110/110/110 112/112/112
f 112/112/112 110/110/110 129/129/129
f 110/110/110 129/129/129 129/129/129
f 129/129/129 129/129/129 131/131/131
f 129/129/129 131/131/131 131/131/131
f 131/131/131 131/131/131 132/132/132
f 131/131/131 133/133/133 132/132/132
f 132/132/132 133/133/133 132/132/132
f 133/133/133 134/134/134 132/132/132
f 132/132/132 134/134/134 135/135/135
f 134/134/134 136/136/136 135/135/135
f 135/135/135 136/136/136 135/135/135
f 136/136/136 137/137/137 135/135/135
f 135/135/135 137/137/137 138/138/138
f 137/137/137 138/138/138 138/138/138
f 138/138/138 138/138/138 139/139/139
f 138/138/138 139/139/139 139/139/139
f 139/139/139 139/139/139 140/140/140
f 139/139/139 141/141/141 140/140/140
f 140/140/140 141/141/141 140/140/140
f 141/141/141 142/142/142 140/140/140
f 140/140/140 142/142/142 143/143/143
f 142/142/142 144/144/144 143/143/143
f 143/143/143 144/144/144 145/145/145
f 144/144/144 145/145/145 145/145/145
f 145/145/145 145/145/145 146/146/146
f 145/145/145 146/146/146 146/146/146
f 146/146/146 146/146/146 147/147/147
f 146/146/146 148/148/148 147/147/147
f 147/147/147 148/148/148 149/149/149
f 148/148/148 149/149/149 149/149/149
f 149/149/149 149/149/149 149/149/149
f 149/149/149 149/149/149 149/149/149
f 149/149/149 149/149/149 150/150/150
f 149/149/149 151/151/151 150/150/150
f 150/150/150 151/151/151 150/150/150
f 151/151/151 152/152/152 150/150/150
f 150/150/150 152/152/152 153/153/153
f 152/152/152 154/154/154 153/153/153
f 153/153/153 154/154/154 155/155/155
f 154/154/154 155/155/155 155/155/155
f 155/155/155 155/155/155 156/156/156
f 155/155/155 156/156/156 156/156/156
f 156/156/156 156/156/156 157/157/157
f 156/156/156 158/158/158 157/157/157
f 157/157/157 158/158/158 159/159/159
f 158/158/158 158/158/158 159/159/159
f 159/159/159 158/158/158 160/160/160
f 158/158/158 161/161/161 160/160/160
f 160/160/160 161/161/161 162/162/162
f 161/161/161 162/162/162 162/162/162
f 162/162/162 162/162/162 156/156/156
f 162/162/162 156/156/156 156/156/156
f 156/156/156 156/156/156 158/158/158
f 156/156/156 163/163/163 158/158/158
f 158/158/158 163/163/163 158/158/158
f 163/163/163 164/164/164 158/158/158
f 158/158/158 164/164/164 158/158/158
f 164/164/164 165/165/165 158/158/158
f 158/158/158 165/165/165 158/158/158
f 165/165/165 166/166/166 158/158/158
f 158/158/158 166/166/166 161/161/161
f 166/166/166 161/161/161 161/161/161
f 161/161/161 161/161/161 167/167/167
f 161/161/161 167/167/167 167/167/167
f 167/167/167 167/167/167 168/168/168
f 167/167/167 169/169/169 168/168/168
f 168/168/168 169/169/169 168/168/168
f 169/169/169 170/170/170 168/168/168
f 168/168/168 170/170/170 168/168/168
f 170/170/170 171/171/171 168/168/168
f 168/168/168 171/171/171 172/172/172
f 171/171/171 172/172/172 172/172/172
f 172/172/172 172/172/172 173/173/173
f 172/172/172 173/173/173 173/173/173
f 173/173/173 173/173/173 174/174/174
f 173/173/173 175/175/175 174/174/174
f 174/174/174 175/175/175 174/174/174
f 175/175/175 176/176/176 174/174/174
f 174/174/174 176/176/176 174/174/174
f 176/176/176 177/177/177 174/174/174
f 174/174/174 177/177/177 178/178/178
f 177/177/177 178/178/178 178/178/178
f 178/178/178 178/178/178 179/179/179
f 178/178/178 179/179/179 179/179/179
f 179/179/179 179/179/179 180/180/180
f 179/179/179 181/181/181 180/180/180
f 180/180/180 181/181/181 180/180/180
f 181/181/181 182/182/182 180/180/180
f 180/180/180 182/182/182 183/183/183
f 182/182/182 184/184/184 183/183/183
f 183/183/183 184/184/184 185/185/185
f 184/184/184 186/186/186 185/185/185
f 185/185/185 186/186/186 186/186/186
f 186/186/186 187/187/187 186/186/186
f 186/186/186 187/187/187 187/187/187
f 187/187/187 188/188/188 187/187/187
f 187/187/187 188/188/188 189/189/189
f 188/188/188 188/188/188 189/189/189
f 189/189/189 188/188/188 190/190/190
f 188/188/188 191/191/191 190/190/190
f 190/190/190 191/191/191 192/192/192
f 191/191/191 191/191/191 192/192/192
f 192/192/192 191/191/191 193/193/193
f 191/191/191 194/194/194 193/193/193
f 193/193/193 194/194/194 194/194/194
f 194/194/194 195/195/195 194/194/194
f 194/194/194 195/195/195 195/195/195
f 195/195/195 196/196/196 195/195/195
f 195/195/195 196/196/196 197/197/197
f 196/196/196 198/198/198 197/197/197
f 197/197/197 198/198/198 199/199/199
f 198/198/198 200/200/200 199/199/199
f 199/199/199 200/200/200 201/201/201
f 200/200/200 201/201/201 201/201/201
f 201/201/201 201/201/201 202/202/202
f 201/201/201 202/202/202 202/202/202
f 202/202/202 202/202/202 203/203/203
f 202/202/202 204/204/204 203/203/203
f 203/203/203 204/204/204 205/205/205
f 204/204/204 205/205/205 205/205/205
f 205/205/205 205/205/205 206/206/206
f 205/205/205 206/206/206 206/206/206
f 206/206/206 206/206/206 207/207/207
f 206/206/206 208/208/208 207/207/207
f 207/207/207 208/208/208 209/209/209
f 208/208/208 210/210/210 209/209/209
f 209/209/209 210/210/210 211/211/211
f 210/210/210 212/212/212 211/211/211
f 211/211/211 212/212/212 212/212/212
f 212/212/212 213/213/213 212/212/212
f 212/212/212 213/213/213 213/213/213
f 213/213/213 214/214/214 213/213/213
f 213/213/213 214/214/214 215/215/215
f 214/214/214 216/216/216 215/215/215
f 215/215/215 216/216/216 217/217/217
f 216/216/216 218/218/218 217/217/217
f 217/217/217 218/218/218 218/218/218
f 218/218/218 219/219/219 218/218/218
f 218/218/218 219/219/219 219/219/219
f 219/219/219 220/220/220 219/219/219
f 219/219/219 220/220/220 221/221/221
f 220/220/220 222/222/222 221/221/221
f 221/221/221 222/222/222 223/223/223
f 222/222/222 224/224/224 223/223/223
f 223/223/223 224/224/224 223/223/223
f 224/224/224 225/225/225 223/223/223
f 223/223/223 225/225/225 223/223/223
f 225/225/225 226/226/226 223/223/223
f 223/223/223 226/226/226 227/227/227
f 226/226/226 226/226/226 227/227/227
f 227/227/227 226/226/226 228/228/228
f 226/226/226 226/226/226 228/228/228
f 228/228/228 226/226/226 229/229/229
f 226/226/226 226/226/226 229/229/229
f 229/229/229 226/226/226 230/230/230
f 226/226/226 231/231/231 230/230/230
f 230/230/230 231/231/231 232/232/232
f 231/231/231 232/232/232 232/232/232
f 232/232/232 232/232/232 220/220/220
f 232/232/232 220/220/220 220/220/220
f 220/220/220 220/220/220 222/222/222
f 220/220/220 233/233/233 222/222/222
f 222/222/222 233/233/233 224/224/224
f 233/233/233 224/224/224 224/224/224
f 224/224/224 224/224/224 223/223/223
f 224/224/224 223/223/223 223/223/223
f 223/223/223 223/223/223 221/221/221
f 223/223/223 227/227/227 221/221/221
f 221/221/221 227/227/227 227/227/227
f 227/227/227 225/225/225 227/227/227
f 227/227/227 225/225/225 225/225/225
f 225/225/225 231/231/231 225/225/225
f 225/225/225 231/231/231 226/226/226
f 231/231/231 226/226/226 226/226/226
f 226/226/226 226/226/226 234/234/234
f 226/226/226 234/234/234 234/234/234
f 234/234/234 234/234/234 235/235/235
f 234/234/234 236/236/236 235/235/235
f 235/235/235 236/236/236 235/235/235
f 236/236/236 237/237/237 235/235/235
f 235/235/235 237/237/237 238/238/238
f 237/237/237 239/239/239 238/238/238
f 238/238/238 239/239/239 240/240/240
f 239/239/239 241/241/241 240/240/240
f 240/240/240 241/241/241 242/242/242
f 241/241/241 243/243/243 242/242/242
f 242/242/242 243/243/243 243/243/243
f 243/243/243 240/240/240 243/243/243
f 243/243/243 240/240/240 240/240/240
f 240/240/240 242/242/242 240/240/240
f 240/240/240 242/242/242 244/244/244
f 242/242/242 244/244/244 244/244/244
f 244/244/244 244/244/244 245/245/245
f 244/244/244 245/245/245 245/245/245
f 245/245/245 245/245/245 246/246/246
f 245/245/245 247/247/247 246/246/246
f 246/246/246 247/247/247 248/248/248
f 247/247/247 249/249/249 248/248/248
f 248/248/248 249/249/249 250/250/250
f 249/249/249 251/251/251 250/250/250
f 250/250/250 251/251/251 252/252/252
f 251/251/251 253/253/253 252/252/252
f 252/252/252 253/253/253 254/254/254
f 253/253/253 254/254/254 254/254/254
f 254/254/254 254/254/254 255/255/255
f 254/254/254 255/255/255 255/255/255
f 255/255/255 255/255/255 248/248/248
f 255/255/255 246/246/246 248/248/248
